<svg width="48" height="47" viewBox="0 0 48 47" fill="none" xmlns="http://www.w3.org/2000/svg">
<path d="M7.13972 21.3541L7.14363 21.3557C8.3639 21.8521 9.7182 22.0957 11.1992 22.0957C12.7202 22.0957 14.1139 21.842 15.3732 21.3259L15.3732 21.326L15.3824 21.3221C16.6147 20.788 17.6779 20.0458 18.5664 19.0953L18.5665 19.0954L18.574 19.0871C19.4404 18.1175 20.1068 16.9767 20.576 15.6711L20.5761 15.6711L20.5791 15.6623C21.0287 14.3339 21.25 12.8726 21.25 11.2832C21.25 9.63958 21.0396 8.15083 20.6106 6.82285L20.6106 6.82284L20.6091 6.81845C20.1613 5.47505 19.5248 4.3292 18.6921 3.39243L18.6921 3.3924L18.688 3.38786C17.8361 2.45288 16.8077 1.73709 15.6091 1.24112L15.6091 1.24111L15.6064 1.23998C14.3861 0.743598 13.0318 0.5 11.5508 0.5C9.99374 0.5 8.57262 0.752676 7.29477 1.2674C6.01836 1.76202 4.9299 2.49642 4.03719 3.4709C3.12456 4.42626 2.4363 5.59272 1.96692 6.95959C1.49643 8.31015 1.26562 9.82185 1.26562 11.4883C1.26562 13.061 1.49757 14.506 1.96892 15.8175C2.43868 17.1247 3.10695 18.2494 3.97822 19.183C4.84975 20.1167 5.90595 20.84 7.13972 21.3541ZM8.6398 4.18523L8.63983 4.18531L8.64838 4.18152C9.45515 3.82295 10.3709 3.63867 11.4043 3.63867C13.4754 3.63867 15.0011 4.29835 16.0592 5.56814L16.0592 5.56815L16.0615 5.57078C17.1286 6.83353 17.7012 8.7211 17.7012 11.3125C17.7012 13.9006 17.1203 15.7983 16.0338 17.0816C14.9561 18.3352 13.4182 18.9863 11.3457 18.9863C10.3107 18.9863 9.40469 18.8112 8.61854 18.4725C7.82588 18.1115 7.15394 17.6088 6.59763 16.9628L6.59768 16.9628L6.59245 16.9569C6.01935 16.3121 5.58324 15.5266 5.28957 14.5906L5.28965 14.5905L5.28684 14.5821C4.97418 13.6441 4.81445 12.595 4.81445 11.4297C4.81445 10.1829 4.97509 9.08438 5.28775 8.12803L5.28787 8.12807L5.29116 8.11716C5.58583 7.14109 6.02234 6.3388 6.59245 5.69742L6.59731 5.69195L6.60201 5.68634C7.15589 5.02527 7.83309 4.52585 8.6398 4.18523ZM41.8591 25.6454L41.8564 25.6443C40.6361 25.1479 39.2818 24.9043 37.8008 24.9043C36.2445 24.9043 34.8324 25.1567 33.5727 25.6722C32.2969 26.1668 31.2089 26.9011 30.3165 27.8752C29.4056 28.8287 28.7174 29.9837 28.2477 31.3304C27.7565 32.6824 27.5156 34.1956 27.5156 35.8633C27.5156 37.4347 27.7472 38.8785 28.2177 40.1892C28.6679 41.4976 29.3268 42.6236 30.1989 43.558C31.0702 44.4914 32.126 45.2146 33.3592 45.7286C34.5817 46.2463 35.9478 46.5 37.4492 46.5C38.97 46.5 40.3552 46.2464 41.5966 45.7291L41.5966 45.7292L41.6031 45.7264C42.8354 45.1923 43.8986 44.4501 44.7871 43.4996L44.7872 43.4997L44.7947 43.4914C45.6611 42.5218 46.3275 41.381 46.7967 40.0754L46.7975 40.073C47.2682 38.7428 47.5 37.2791 47.5 35.6875C47.5 34.0439 47.2896 32.5551 46.8606 31.2271L46.8591 31.2227C46.4113 29.8793 45.7748 28.7335 44.9421 27.7967L44.9421 27.7967L44.938 27.7922C44.0861 26.8572 43.0577 26.1414 41.8591 25.6454ZM34.9191 28.5602L34.9192 28.5604L34.9315 28.5548C35.7164 28.198 36.6207 28.0137 37.6543 28.0137C39.7254 28.0137 41.2511 28.6734 42.3092 29.9431L42.3115 29.9458C43.3781 31.208 43.9512 33.1048 43.9512 35.7168C43.9512 38.2638 43.3809 40.1555 42.3095 41.4608C41.2321 42.7308 39.6862 43.3906 37.5957 43.3906C36.583 43.3906 35.6882 43.2068 34.9022 42.8495L34.8984 42.8478C34.0845 42.486 33.4031 41.9829 32.8476 41.3378C32.2887 40.6887 31.8501 39.9072 31.5364 38.9852C31.224 38.0475 31.0645 36.9988 31.0645 35.834C31.0645 34.5874 31.225 33.478 31.5386 32.5004C31.8527 31.5213 32.2997 30.716 32.8718 30.0724L32.8766 30.0669L32.8813 30.0613C33.4352 29.4003 34.1124 28.9008 34.9191 28.5602ZM39.811 1.25815L40.2681 0.5H39.3828H37.2148H36.9326L36.7868 0.741646L9.62856 45.7416L9.17088 46.5H10.0566H12.2539H12.5363L12.6821 46.2581L39.811 1.25815Z" fill="#FE8300" stroke="#FE8300"/>
<path d="M7.13972 21.3541L7.14363 21.3557C8.3639 21.8521 9.7182 22.0957 11.1992 22.0957C12.7202 22.0957 14.1139 21.842 15.3732 21.3259L15.3732 21.326L15.3824 21.3221C16.6147 20.788 17.6779 20.0458 18.5664 19.0953L18.5665 19.0954L18.574 19.0871C19.4404 18.1175 20.1068 16.9767 20.576 15.6711L20.5761 15.6711L20.5791 15.6623C21.0287 14.3339 21.25 12.8726 21.25 11.2832C21.25 9.63958 21.0396 8.15083 20.6106 6.82285L20.6106 6.82284L20.6091 6.81845C20.1613 5.47505 19.5248 4.3292 18.6921 3.39243L18.6921 3.3924L18.688 3.38786C17.8361 2.45288 16.8077 1.73709 15.6091 1.24112L15.6091 1.24111L15.6064 1.23998C14.3861 0.743598 13.0318 0.5 11.5508 0.5C9.99374 0.5 8.57262 0.752676 7.29477 1.2674C6.01836 1.76202 4.9299 2.49642 4.03719 3.4709C3.12456 4.42626 2.4363 5.59272 1.96692 6.95959C1.49643 8.31015 1.26562 9.82185 1.26562 11.4883C1.26562 13.061 1.49757 14.506 1.96892 15.8175C2.43868 17.1247 3.10695 18.2494 3.97822 19.183C4.84975 20.1167 5.90595 20.84 7.13972 21.3541ZM8.6398 4.18523L8.63983 4.18531L8.64838 4.18152C9.45515 3.82295 10.3709 3.63867 11.4043 3.63867C13.4754 3.63867 15.0011 4.29835 16.0592 5.56814L16.0592 5.56815L16.0615 5.57078C17.1286 6.83353 17.7012 8.7211 17.7012 11.3125C17.7012 13.9006 17.1203 15.7983 16.0338 17.0816C14.9561 18.3352 13.4182 18.9863 11.3457 18.9863C10.3107 18.9863 9.40469 18.8112 8.61854 18.4725C7.82588 18.1115 7.15394 17.6088 6.59763 16.9628L6.59768 16.9628L6.59245 16.9569C6.01935 16.3121 5.58324 15.5266 5.28957 14.5906L5.28965 14.5905L5.28684 14.5821C4.97418 13.6441 4.81445 12.595 4.81445 11.4297C4.81445 10.1829 4.97509 9.08438 5.28775 8.12803L5.28787 8.12807L5.29116 8.11716C5.58583 7.14109 6.02234 6.3388 6.59245 5.69742L6.59731 5.69195L6.60201 5.68634C7.15589 5.02527 7.83309 4.52585 8.6398 4.18523ZM41.8591 25.6454L41.8564 25.6443C40.6361 25.1479 39.2818 24.9043 37.8008 24.9043C36.2445 24.9043 34.8324 25.1567 33.5727 25.6722C32.2969 26.1668 31.2089 26.9011 30.3165 27.8752C29.4056 28.8287 28.7174 29.9837 28.2477 31.3304C27.7565 32.6824 27.5156 34.1956 27.5156 35.8633C27.5156 37.4347 27.7472 38.8785 28.2177 40.1892C28.6679 41.4976 29.3268 42.6236 30.1989 43.558C31.0702 44.4914 32.126 45.2146 33.3592 45.7286C34.5817 46.2463 35.9478 46.5 37.4492 46.5C38.97 46.5 40.3552 46.2464 41.5966 45.7291L41.5966 45.7292L41.6031 45.7264C42.8354 45.1923 43.8986 44.4501 44.7871 43.4996L44.7872 43.4997L44.7947 43.4914C45.6611 42.5218 46.3275 41.381 46.7967 40.0754L46.7975 40.073C47.2682 38.7428 47.5 37.2791 47.5 35.6875C47.5 34.0439 47.2896 32.5551 46.8606 31.2271L46.8591 31.2227C46.4113 29.8793 45.7748 28.7335 44.9421 27.7967L44.9421 27.7967L44.938 27.7922C44.0861 26.8572 43.0577 26.1414 41.8591 25.6454ZM34.9191 28.5602L34.9192 28.5604L34.9315 28.5548C35.7164 28.198 36.6207 28.0137 37.6543 28.0137C39.7254 28.0137 41.2511 28.6734 42.3092 29.9431L42.3115 29.9458C43.3781 31.208 43.9512 33.1048 43.9512 35.7168C43.9512 38.2638 43.3809 40.1555 42.3095 41.4608C41.2321 42.7308 39.6862 43.3906 37.5957 43.3906C36.583 43.3906 35.6882 43.2068 34.9022 42.8495L34.8984 42.8478C34.0845 42.486 33.4031 41.9829 32.8476 41.3378C32.2887 40.6887 31.8501 39.9072 31.5364 38.9852C31.224 38.0475 31.0645 36.9988 31.0645 35.834C31.0645 34.5874 31.225 33.478 31.5386 32.5004C31.8527 31.5213 32.2997 30.716 32.8718 30.0724L32.8766 30.0669L32.8813 30.0613C33.4352 29.4003 34.1124 28.9008 34.9191 28.5602ZM39.811 1.25815L40.2681 0.5H39.3828H37.2148H36.9326L36.7868 0.741646L9.62856 45.7416L9.17088 46.5H10.0566H12.2539H12.5363L12.6821 46.2581L39.811 1.25815Z" fill="#FE8300" stroke="#FE8300"/>
</svg>
