<svg width="1920" height="1080" viewBox="0 0 1920 1080" fill="none" xmlns="http://www.w3.org/2000/svg">
<g clip-path="url(#clip0_535_2)">
<rect width="1920" height="1080" fill="white"/>
<path d="M680.898 501.518L680.904 501.501L680.91 501.484C763.697 267.74 936.271 57.1147 1147.34 -93.6124C1358.43 -244.359 1607.14 -334.558 1841.56 -328.659C2076.61 -322.744 2254.76 -222.101 2353.64 -65.9289C2452.6 90.3629 2473.23 303.959 2389.61 537.626L2389.6 537.643L2389.59 537.66C2306.81 771.404 2134.23 982.03 1923.16 1132.76C1712.07 1283.5 1463.37 1373.7 1228.94 1367.8C993.894 1361.89 815.748 1261.24 716.865 1105.07C617.907 948.781 597.278 735.185 680.898 501.518Z" stroke="#FE8300" stroke-width="22"/>
<path d="M2558.15 -343.211L2558.14 -343.192L2558.14 -343.174C2521.51 -146.876 2410.52 42.3834 2261.31 188.827C2112.07 335.295 1925.42 438.133 1738.29 462.738C1550.72 487.4 1396.84 429.649 1299 318.171C1201.06 206.582 1157.9 39.5847 1195.21 -156.742L1195.21 -156.761L1195.21 -156.779C1231.85 -353.077 1342.83 -542.337 1492.05 -688.78C1641.29 -835.248 1827.94 -938.087 2015.07 -962.691C2202.64 -987.354 2356.51 -929.602 2454.35 -818.124C2552.29 -706.535 2595.45 -539.538 2558.15 -343.211Z" stroke="#FE8300" stroke-width="23"/>
<path d="M2255.35 1598.76L2255.33 1598.76L2255.31 1598.76C2055.66 1594.93 1850.72 1516.59 1681.72 1393.51C1512.69 1270.41 1380.55 1103.22 1325.49 922.689C1270.3 741.733 1301.94 580.456 1395.8 465.606C1489.75 350.641 1647.37 280.591 1847.16 285.081L1847.18 285.082L1847.2 285.082C2046.85 288.916 2251.79 367.25 2420.79 490.334C2589.82 613.438 2721.97 780.625 2777.03 961.156C2832.22 1142.11 2800.57 1303.39 2706.71 1418.24C2612.76 1533.2 2455.14 1603.25 2255.35 1598.76Z" stroke="#FE8300" stroke-width="23"/>
</g>
<defs>
<clipPath id="clip0_535_2">
<rect width="1920" height="1080" fill="white"/>
</clipPath>
</defs>
</svg>
