<svg width="327" height="216" viewBox="0 0 327 216" fill="none" xmlns="http://www.w3.org/2000/svg">
<path fill-rule="evenodd" clip-rule="evenodd" d="M64.5343 0C90.1856 0 104.013 21.8779 95.7164 48.4862C87.3249 74.996 59.4804 96.5783 33.7338 96.5783C8.08252 96.5783 -6.12577 74.996 2.55179 48.4862C10.9433 21.8779 38.8831 0 64.5343 0Z" fill="white"/>
<path fill-rule="evenodd" clip-rule="evenodd" d="M179.441 0C205.473 0 219.3 21.8779 210.909 48.4862C202.517 74.996 174.673 96.5783 148.926 96.5783C123.275 96.5783 109.066 74.996 117.458 48.4862C126.136 21.8779 153.789 0 179.441 0Z" fill="white"/>
<path fill-rule="evenodd" clip-rule="evenodd" d="M293.108 0C318.759 0 332.586 21.8779 324.29 48.4862C315.898 74.996 288.054 96.5783 262.307 96.5783C236.656 96.5783 222.447 74.996 231.125 48.4862C239.516 21.8779 267.456 0 293.108 0Z" fill="white"/>
<path fill-rule="evenodd" clip-rule="evenodd" d="M141.584 119.442C167.235 119.442 181.348 141.024 173.052 167.534C164.66 194.043 136.816 215.626 111.069 215.626C85.4178 215.626 71.2094 194.043 79.6009 167.534C87.9924 141.024 115.932 119.442 141.584 119.442Z" fill="white"/>
</svg>
