<svg width="116" height="118" viewBox="0 0 116 118" fill="none" xmlns="http://www.w3.org/2000/svg">
<g filter="url(#filter0_d_512_736)">
<path d="M81.5473 9.01861C83.3944 9.65241 84.6258 11.1192 86.002 12.3687C90.4567 16.425 94.8571 20.5538 99.3118 24.6101C100.815 25.9682 101.684 27.8878 101.702 29.9159V97.4066C101.702 101.535 99.6921 103.382 95.4909 103.382H15.8856C11.2317 103.672 9.02243 101.771 9.02243 97.4066V14.8858C8.87756 13.2198 9.43892 11.5538 10.5798 10.3224C11.5576 9.45322 12.8433 8.9824 14.1653 9.0005H81.5473V9.01861ZM10.3262 73.2498V98.5112C10.3262 100.648 12.8252 102.097 14.962 102.097H95.0382C98.4607 102.097 100.272 100.358 100.272 98.312V30.2962C100.272 28.2137 99.9275 26.9823 99.0764 26.2037L83.5574 11.8798C82.7063 10.9381 81.5111 10.3586 80.2435 10.25H16.4469C12.2095 10.2681 10.3262 12.0427 10.3262 14.5055V73.2316V73.2498Z" fill="#343434"/>
<path d="M25.4834 90.8696H23.8174V102.26H25.4834V90.8696Z" fill="#343434"/>
<path d="M37.6157 90.8696H35.9497V102.26H37.6157V90.8696Z" fill="#343434"/>
<path d="M50.1655 90.8696H48.4995V102.26H50.1655V90.8696Z" fill="#343434"/>
<path d="M62.2973 90.8696H60.6313V102.26H62.2973V90.8696Z" fill="#343434"/>
<path d="M74.2856 90.8696H72.6196V102.26H74.2856V90.8696Z" fill="#343434"/>
<path d="M86.4189 90.8696H84.7529V102.26H86.4189V90.8696Z" fill="#343434"/>
<path d="M70.0126 29.9703C70.9905 30.4049 71.8778 31.0568 72.584 31.8717C75.1192 34.1715 77.6182 36.5256 80.1534 38.8254C81.0045 39.5497 81.4572 40.6362 81.421 41.7589V79.8232C81.421 82.0868 80.3164 83.1733 78.0347 83.1733H32.4373C30.1737 83.1733 29.0872 82.0868 29.0872 79.8051V33.2298C28.9604 31.763 29.8478 30.4049 31.2421 29.9521H70.0126V29.9703ZM30.3186 66.0244V80.4389C30.3186 81.634 30.554 81.8332 31.713 81.8332H78.5417C79.6645 81.8332 79.8999 81.5978 79.8999 80.4751V41.3606C79.9361 40.7811 79.6826 40.2197 79.2299 39.8394C76.3868 37.2318 73.5257 34.6242 70.6826 31.9984C70.2299 31.5457 69.6142 31.3103 68.9804 31.3103H31.9665C30.5902 31.3103 30.4091 31.4914 30.4091 32.8495L30.3005 66.0063L30.3186 66.0244Z" fill="#343434"/>
<path d="M18.4028 10.1233H16.7368V21.5136H18.4028V10.1233Z" fill="#343434"/>
<path d="M30.5351 10.1233H28.8691V21.5136H30.5351V10.1233Z" fill="#343434"/>
<path d="M43.103 10.1233H41.437V21.5136H43.103V10.1233Z" fill="#343434"/>
<path d="M55.2353 10.1233H53.5693V21.5136H55.2353V10.1233Z" fill="#343434"/>
<path d="M67.205 10.1233H65.5391V21.5136H67.205V10.1233Z" fill="#343434"/>
<path d="M79.3379 10.1233H77.6719V21.5136H79.3379V10.1233Z" fill="#343434"/>
<path d="M21.6803 32.1794H10.29V33.8454H21.6803V32.1794Z" fill="#343434"/>
<path d="M21.6979 44.7288H10.3076V46.3947H21.6979V44.7288Z" fill="#343434"/>
<path d="M21.6979 56.8616H10.3076V58.5276H21.6979V56.8616Z" fill="#343434"/>
<path d="M21.6979 68.8494H10.3076V70.5154H21.6979V68.8494Z" fill="#343434"/>
<path d="M21.6803 80.9822H10.29V82.6482H21.6803V80.9822Z" fill="#343434"/>
<path d="M100.399 33.5376H89.0083V35.2036H100.399V33.5376Z" fill="#343434"/>
<path d="M100.399 46.105H89.0083V47.771H100.399V46.105Z" fill="#343434"/>
<path d="M100.399 58.2378H89.0083V59.9038H100.399V58.2378Z" fill="#343434"/>
<path d="M100.399 70.2075H89.0083V71.8735H100.399V70.2075Z" fill="#343434"/>
<path d="M100.399 82.3403H89.0083V84.0063H100.399V82.3403Z" fill="#343434"/>
</g>
<g filter="url(#filter1_d_512_736)">
<path d="M64.344 47.0104C62.0442 44.0225 58.4225 42.3565 54.6559 42.5195C50.509 42.3746 46.5432 44.1674 43.8994 47.3545C41.6358 50.2337 40.4225 53.783 40.4225 57.441C40.2415 61.3162 41.672 65.0828 44.3702 67.8715C46.9416 70.4067 50.7082 71.783 55.3983 71.783C58.8209 71.8554 62.2253 71.2578 65.4124 70.0264L65.8289 69.8453L64.507 63.0908L63.8913 63.29C61.5553 64.1049 59.0925 64.5033 56.6297 64.4852C54.9275 64.5395 53.2253 64.123 51.7404 63.29C50.6539 62.6924 49.9296 61.6603 49.676 60.4651H66.843L66.9335 59.9943C67.1146 58.8715 67.2233 57.7307 67.2233 56.5717C67.3138 53.1673 66.3178 49.8172 64.3621 47.0104H64.344ZM59.4366 54.1995V54.7066H49.2958L49.3501 54.1452C49.4768 52.8776 49.9477 51.6643 50.6901 50.6321C51.5774 49.3645 53.0261 48.604 54.5654 48.604C56.1408 48.5134 57.6438 49.2921 58.4949 50.6321C59.1106 51.6824 59.4366 52.8957 59.4185 54.1271V54.1995H59.4366Z" fill="#FE8300"/>
</g>
<defs>
<filter id="filter0_d_512_736" x="0.49" y="0.49" width="115.382" height="117.091" filterUnits="userSpaceOnUse" color-interpolation-filters="sRGB">
<feFlood flood-opacity="0" result="BackgroundImageFix"/>
<feColorMatrix in="SourceAlpha" type="matrix" values="0 0 0 0 0 0 0 0 0 0 0 0 0 0 0 0 0 0 127 0" result="hardAlpha"/>
<feOffset dx="2.83" dy="2.83"/>
<feGaussianBlur stdDeviation="5.67"/>
<feColorMatrix type="matrix" values="0 0 0 0 0.164706 0 0 0 0 0.109804 0 0 0 0 0.0627451 0 0 0 0.22 0"/>
<feBlend mode="normal" in2="BackgroundImageFix" result="effect1_dropShadow_512_736"/>
<feBlend mode="normal" in="SourceGraphic" in2="effect1_dropShadow_512_736" result="shape"/>
</filter>
<filter id="filter1_d_512_736" x="31.8972" y="33.9985" width="49.5018" height="51.9603" filterUnits="userSpaceOnUse" color-interpolation-filters="sRGB">
<feFlood flood-opacity="0" result="BackgroundImageFix"/>
<feColorMatrix in="SourceAlpha" type="matrix" values="0 0 0 0 0 0 0 0 0 0 0 0 0 0 0 0 0 0 127 0" result="hardAlpha"/>
<feOffset dx="2.83" dy="2.83"/>
<feGaussianBlur stdDeviation="5.67"/>
<feColorMatrix type="matrix" values="0 0 0 0 0.164706 0 0 0 0 0.109804 0 0 0 0 0.0627451 0 0 0 0.13 0"/>
<feBlend mode="normal" in2="BackgroundImageFix" result="effect1_dropShadow_512_736"/>
<feBlend mode="normal" in="SourceGraphic" in2="effect1_dropShadow_512_736" result="shape"/>
</filter>
</defs>
</svg>
