<svg width="91" height="91" viewBox="0 0 91 91" fill="none" xmlns="http://www.w3.org/2000/svg">
<g clip-path="url(#clip0_286_256)">
<path d="M31.0704 45.4751C31.0704 33.2595 31.074 21.0475 31.0704 8.83199C31.0704 5.93537 29.4959 3.82066 26.8588 3.0814C26.219 2.9037 25.5686 2.92147 24.9218 2.92147C19.6581 2.91436 14.3909 3.00677 9.13075 2.88948C5.20343 2.80063 2.93234 5.75411 2.93945 9.10566C2.98566 26.9083 2.96078 44.7109 2.96078 62.5172C2.96078 62.9294 2.99276 63.3559 2.90746 63.754C2.76174 64.4257 2.32459 64.8487 1.61021 64.8878C0.913596 64.9233 0.423126 64.5999 0.17789 63.9352C0.0428334 63.5656 0.0286169 63.1853 0.0286169 62.7979C0.0286169 44.846 0.0179545 26.8941 0.0357251 8.94572C0.0357251 4.42131 2.82216 0.973804 7.02315 0.12792C7.67 -2.86958e-05 8.32041 0.00352544 8.96726 0.00352544C14.3198 0.00352544 19.6723 -0.00358282 25.0248 0.00352544C30.3525 0.0106337 33.9955 3.6394 33.999 8.98126C34.0097 29.6237 34.0026 50.2661 34.0026 70.9085C34.0026 74.6936 34.0523 78.4788 33.9883 82.2639C33.9279 85.8038 32.3641 88.4979 29.1654 90.1399C28.1311 90.6694 27.0151 90.9786 25.8423 90.9786C19.9566 90.9822 14.071 91.0248 8.1889 90.9644C4.0981 90.9218 0.586616 87.5702 0.174336 83.4723C-0.141981 80.3447 0.0925912 77.2099 0.0357251 74.0787C0.00373793 72.3052 0.0250627 70.5317 0.0357251 68.7547C0.0357251 68.4312 0.0463875 68.1007 0.11747 67.7879C0.305839 66.974 0.892271 66.5191 1.62798 66.5724C2.34947 66.6222 2.90391 67.1731 2.94301 67.9976C2.99276 69.0319 2.96433 70.0661 2.96788 71.1004C2.96788 74.7363 3.01409 78.3757 2.95722 82.0116C2.90391 85.3418 5.31361 88.1602 9.0028 88.0927C14.3553 87.9967 19.7078 87.9932 25.0604 88.0927C28.7211 88.1638 31.1308 85.3098 31.1095 82.0222C31.042 69.8387 31.0811 57.6551 31.0811 45.468L31.0704 45.4751Z" fill="#FE8300"/>
<path d="M88.0176 45.4999C88.0176 34.7664 88.0212 24.0329 88.0176 13.2995C88.0176 10.5201 86.5533 8.52981 84.0761 7.86164C83.4079 7.68038 82.7255 7.73013 82.0467 7.73013C67.2935 7.72658 52.5367 7.73013 37.7835 7.72658C37.2824 7.72658 36.7812 7.75146 36.2908 7.59152C35.5728 7.3605 35.2068 6.84871 35.2601 6.12367C35.3134 5.39507 35.7577 4.94014 36.4969 4.82641C36.7279 4.79087 36.9696 4.79798 37.2042 4.79798C52.3412 4.79798 67.4818 4.79087 82.6189 4.80153C86.6066 4.80153 89.7094 7.22189 90.6619 11.0106C90.8645 11.8138 90.9498 12.6384 90.9498 13.4665C90.9498 34.8162 90.9533 56.1659 90.9462 77.5155C90.9462 82.7437 87.488 86.1912 82.267 86.1912C67.3041 86.1947 52.3448 86.1912 37.3819 86.1912C35.9354 86.1912 35.2459 85.7362 35.2316 84.7802C35.2174 83.8028 35.9745 83.2661 37.421 83.2661C52.3519 83.2661 67.2864 83.2554 82.2173 83.2768C83.7953 83.2768 85.2027 82.9676 86.3721 81.8587C87.5911 80.7 88.0176 79.2428 88.0176 77.6079C88.0141 66.9029 88.0176 56.1978 88.0176 45.4963V45.4999Z" fill="#FE8300"/>
<path d="M60.6084 31.8984C54.6943 31.8984 48.7767 31.8166 42.8661 31.9375C40.1721 31.9908 37.606 30.4554 37.542 27.0647C37.4852 23.994 37.3608 20.9125 37.6202 17.8453C37.8228 15.4463 39.7172 13.687 42.1198 13.6834C51.9079 13.6621 61.6959 13.6728 71.484 13.6763C72.5218 13.6763 73.1722 14.2308 73.1936 15.0802C73.2149 15.855 72.6 16.4521 71.6191 16.5658C71.2388 16.6085 70.8514 16.5978 70.4675 16.5978C61.3014 16.5978 52.1318 16.5978 42.9657 16.5978C41.018 16.5978 40.428 17.1772 40.4173 19.1213C40.4067 21.5772 40.4067 24.0295 40.4173 26.4854C40.428 28.4011 41.0073 28.984 42.8981 28.984C54.7263 28.984 66.558 28.984 78.3861 28.984C80.3267 28.984 80.7781 28.5255 80.7816 26.5672C80.7852 24.0544 80.7852 21.5381 80.7816 19.0253C80.7816 17.0314 80.3374 16.6049 78.3115 16.5978C77.6611 16.5978 77.0071 16.6263 76.3603 16.5658C75.3474 16.4663 74.8284 15.9048 74.8569 15.0482C74.8889 14.1881 75.4504 13.7012 76.4811 13.6834C77.4265 13.6657 78.3755 13.6586 79.3209 13.6905C81.6879 13.7652 83.6569 15.7235 83.6853 18.0906C83.7244 21.1969 83.7173 24.2996 83.6889 27.4059C83.664 29.9187 81.6773 31.8877 79.1467 31.8984C72.9661 31.9197 66.7854 31.9055 60.6048 31.9055L60.6084 31.8984Z" fill="#FE8300"/>
<path d="M60.4022 44.821C59.432 44.757 58.188 44.9525 56.9583 44.7002C54.7405 44.2452 53.2975 42.4326 53.3793 40.1971C53.461 37.9615 55.0213 36.2627 57.3066 36.0281C59.4817 35.8042 61.6711 35.7935 63.8426 36.0174C66.4549 36.2875 68.0152 38.1464 67.9015 40.684C67.7984 42.9729 65.8934 44.7357 63.4126 44.8175C62.4992 44.8459 61.5822 44.821 60.4022 44.821ZM60.5764 41.8853C61.4934 41.8853 62.4103 41.9102 63.3237 41.8782C64.3118 41.8427 64.9231 41.2953 64.9657 40.485C65.0119 39.5893 64.4859 38.9141 63.4588 38.8714C61.6 38.7932 59.7376 38.7968 57.8788 38.8643C56.8339 38.9034 56.2937 39.5502 56.3292 40.4352C56.3612 41.3166 56.9512 41.8427 58.0068 41.8818C58.8633 41.9102 59.7199 41.8889 60.5764 41.8853Z" fill="#FE8300"/>
<path d="M76.1476 44.8212C75.227 44.7607 74.0115 44.9491 72.8138 44.711C70.5889 44.2738 69.0571 42.4115 69.1495 40.2648C69.2525 37.951 70.7915 36.2628 73.1123 36.0247C75.2875 35.8008 77.4768 35.7901 79.6484 36.0176C82.2109 36.2841 83.7818 38.1287 83.6965 40.6131C83.6183 42.909 81.7275 44.7145 79.2681 44.8141C78.3262 44.8532 77.3808 44.8212 76.1476 44.8212ZM76.4212 41.8855C77.2493 41.889 78.0775 41.889 78.9056 41.889C78.966 41.889 79.0229 41.889 79.0833 41.8855C80.0784 41.8286 80.7004 41.3168 80.7537 40.5136C80.8141 39.6108 80.2988 38.9178 79.2787 38.8751C77.3915 38.7934 75.4972 38.7934 73.6064 38.8751C72.5686 38.9178 72.0603 39.5895 72.1207 40.4958C72.1776 41.3523 72.7214 41.8357 73.7592 41.8748C74.6442 41.9103 75.5327 41.8819 76.4177 41.8819L76.4212 41.8855Z" fill="#FE8300"/>
<path d="M44.5402 44.8212C43.5948 44.7572 42.3793 44.9455 41.1815 44.7003C38.9247 44.2418 37.4959 42.415 37.599 40.1155C37.6985 37.951 39.2836 36.2557 41.5156 36.0247C43.6908 35.8008 45.8801 35.7901 48.0517 36.014C50.7031 36.2877 52.2384 38.15 52.1105 40.7659C52.0039 42.9766 50.074 44.7359 47.6323 44.814C46.6904 44.846 45.745 44.8176 44.5366 44.8176L44.5402 44.8212ZM44.8565 41.8854C45.745 41.8854 46.63 41.9103 47.5186 41.8783C48.5386 41.8428 49.1179 41.3417 49.1783 40.51C49.2459 39.5966 48.7483 38.9284 47.7069 38.8822C45.8197 38.8005 43.9218 38.8005 42.0345 38.8822C40.9896 38.9248 40.4849 39.593 40.5489 40.4993C40.6093 41.3345 41.1851 41.8428 42.198 41.8819C43.083 41.9139 43.9715 41.889 44.8601 41.889L44.8565 41.8854Z" fill="#FE8300"/>
<path d="M76.3642 55.8425C75.3904 55.8425 74.4166 55.8639 73.4427 55.839C71.0295 55.775 69.1387 53.8345 69.1387 51.4425C69.1387 49.047 71.0259 47.0887 73.4392 47.0461C75.4153 47.0105 77.3949 47.0105 79.371 47.0461C81.8234 47.0887 83.6857 48.9866 83.7 51.3963C83.7142 53.8664 81.866 55.775 79.3746 55.8425C78.3723 55.871 77.3665 55.8461 76.3642 55.8461V55.8425ZM76.5419 49.964C75.6534 49.964 74.7684 49.964 73.8799 49.964C73.8195 49.964 73.7626 49.964 73.7022 49.964C72.6964 50.0102 72.0602 50.5966 72.0744 51.4603C72.0886 52.2955 72.7035 52.8891 73.656 52.9033C75.4899 52.9282 77.3238 52.9282 79.1542 52.9033C80.1885 52.8891 80.7642 52.3204 80.7536 51.4141C80.7429 50.5185 80.16 49.9924 79.108 49.9676C78.2515 49.9462 77.3914 49.964 76.5348 49.9605L76.5419 49.964Z" fill="#FE8300"/>
<path d="M44.8283 66.9847C43.7692 66.9279 42.7065 67.0309 41.6474 66.8852C39.1239 66.5405 37.521 64.7741 37.5921 62.3679C37.6596 60.008 39.4509 58.174 41.921 58.0781C43.8971 57.9999 45.8768 57.9963 47.8529 58.0816C50.2555 58.1883 52.0539 60.008 52.1143 62.24C52.1854 64.7634 50.6358 66.5334 48.1017 66.8817C47.0106 67.0309 45.9194 66.9243 44.8319 66.9847H44.8283ZM44.7928 60.996V60.9889C44.3805 60.9889 43.9647 60.9889 43.5524 60.9889C43.1081 60.9889 42.6639 60.9783 42.2232 60.9925C41.2173 61.028 40.6238 61.5149 40.5527 62.3502C40.4745 63.2565 40.9721 63.946 42.0063 63.9957C43.8936 64.081 45.7879 64.081 47.6752 64.0064C48.7059 63.9673 49.2248 63.2956 49.1786 62.3928C49.1359 61.5576 48.5566 61.0387 47.5437 61.0031C46.6267 60.9711 45.7098 60.996 44.7963 60.996H44.7928Z" fill="#FE8300"/>
<path d="M76.4244 66.9847C75.3653 66.9279 74.3026 67.0345 73.2435 66.8888C70.7307 66.544 69.078 64.7527 69.1455 62.3928C69.2131 60.0791 70.9617 58.2202 73.3821 58.0959C75.4115 57.9892 77.4587 57.9928 79.4881 58.0959C81.9084 58.2202 83.6642 60.0933 83.6997 62.3999C83.7353 64.7883 82.1466 66.544 79.6978 66.8852C78.6066 67.0345 77.5155 66.9279 76.428 66.9883L76.4244 66.9847ZM76.4528 64.0526C77.3094 64.0526 78.1695 64.0846 79.026 64.0419C79.8044 64.0064 80.4974 63.7469 80.7178 62.8833C80.9844 61.849 80.2878 61.028 79.0722 61.0031C77.3591 60.9676 75.6425 60.9818 73.9259 60.996C72.7388 61.0067 72.131 61.522 72.1168 62.4817C72.1026 63.4199 72.7139 63.9886 73.8797 64.0455C74.7362 64.0881 75.5927 64.0526 76.4528 64.0526Z" fill="#FE8300"/>
<path d="M44.8609 78.0132C43.9759 78.0132 43.0909 78.0274 42.2059 78.0132C39.615 77.9635 37.7135 76.2219 37.5998 73.8122C37.4825 71.3172 39.0819 69.4655 41.719 69.199C43.8337 68.9857 45.9662 68.9857 48.0809 69.2061C50.6577 69.4726 52.2108 71.3315 52.1149 73.9011C52.0296 76.1011 50.1708 77.8853 47.7859 78.0026C46.8156 78.0488 45.8383 78.0097 44.8644 78.0097C44.8644 78.0097 44.8644 78.0132 44.8644 78.0168L44.8609 78.0132ZM44.8289 75.0775C45.7174 75.0775 46.6024 75.0917 47.4909 75.074C48.5003 75.0526 49.1045 74.5551 49.1756 73.7341C49.2502 72.8242 48.7491 72.1453 47.7291 72.0743C45.8134 71.9428 43.887 71.9285 41.9714 72.0814C40.9727 72.1596 40.4964 72.7922 40.5462 73.6665C40.5959 74.5124 41.1824 75.042 42.1704 75.0704C43.0554 75.0953 43.9439 75.0775 44.8324 75.0775H44.8289Z" fill="#FE8300"/>
<path d="M60.6509 58.0638C61.6248 58.0638 62.6022 58.0247 63.5724 58.0709C65.6978 58.1775 67.4393 59.6205 67.841 61.5575C68.2603 63.5691 67.2687 65.5594 65.3993 66.4906C64.692 66.8425 63.9207 66.9456 63.1637 66.9491C61.248 66.9598 59.3253 67.0948 57.4167 66.8674C54.911 66.5688 53.2939 64.742 53.3792 62.343C53.4645 59.9795 55.2593 58.1953 57.7294 58.0673C58.6997 58.0176 59.6771 58.0602 60.6509 58.0602V58.0638ZM60.6261 64.0525C61.4791 64.0525 62.3356 64.0809 63.1886 64.0454C63.9954 64.0098 64.7204 63.7682 64.9337 62.8548C65.1789 61.8063 64.5036 61.0279 63.2703 61.0066C61.5644 60.9746 59.8548 60.9853 58.1453 60.9995C56.9582 61.0102 56.3505 61.5148 56.3291 62.4673C56.3078 63.4021 56.912 63.985 58.0635 64.0489C58.9165 64.0951 59.7731 64.0596 60.6261 64.0596V64.0525Z" fill="#FE8300"/>
<path d="M60.6078 78.0096C59.6944 78.0096 58.7774 78.0345 57.864 78.006C55.3406 77.9243 53.4889 76.165 53.3822 73.7731C53.2721 71.3349 54.8892 69.4619 57.4517 69.2024C59.5664 68.9892 61.6954 68.9963 63.8136 69.2024C66.4117 69.4583 67.9862 71.2816 67.9044 73.8441C67.8334 76.1188 65.9106 77.9243 63.444 78.0025C62.5022 78.0345 61.5568 78.006 60.6114 78.006L60.6078 78.0096ZM60.5936 75.0739C61.5106 75.0739 62.4275 75.0952 63.3445 75.0668C64.2934 75.0419 64.887 74.5372 64.9616 73.7517C65.0469 72.8703 64.5955 72.195 63.6146 72.0991C61.6456 71.9107 59.6588 71.9178 57.6863 72.0955C56.7018 72.1844 56.254 72.8419 56.3393 73.7375C56.4139 74.5514 56.9684 75.0348 57.9351 75.0668C58.8201 75.0952 59.7086 75.0739 60.5971 75.0739H60.5936Z" fill="#FE8300"/>
<path d="M60.7078 47.039C61.6816 47.039 62.6554 47.0177 63.6293 47.0426C66.0176 47.0995 67.8836 48.9867 67.9084 51.3466C67.9333 53.7919 66.142 55.7573 63.7252 55.8284C61.6603 55.8888 59.5918 55.8853 57.5304 55.8284C55.1953 55.768 53.3258 53.735 53.3578 51.4C53.3898 49.072 55.2309 47.135 57.5233 47.0497C58.5824 47.0106 59.6486 47.0426 60.7113 47.0426C60.7113 47.0426 60.7113 47.0426 60.7113 47.039H60.7078ZM60.658 49.9712C59.7126 49.9712 58.7637 49.9463 57.8218 49.9783C56.8586 50.0103 56.3113 50.5861 56.3291 51.4746C56.3469 52.324 56.88 52.8856 57.804 52.8998C59.6948 52.9282 61.5892 52.9282 63.48 52.8998C64.4503 52.8856 64.9869 52.2992 64.9692 51.4035C64.955 50.547 64.4325 50.0103 63.4978 49.9783C62.5524 49.9463 61.607 49.9712 60.6616 49.9712H60.658Z" fill="#FE8300"/>
<path d="M76.4383 78.006C75.4645 78.006 74.4871 78.0451 73.5168 77.9989C71.1249 77.8817 69.3691 76.2112 69.1701 73.9046C68.9817 71.7614 70.3998 69.7676 72.4896 69.2913C73.4137 69.0816 74.3627 69.0674 75.3081 69.0958C76.751 69.1385 78.1976 69.0176 79.6406 69.1953C82.1569 69.501 83.7811 71.3278 83.6958 73.8051C83.6176 76.0762 81.773 77.8817 79.3598 77.9989C78.3895 78.0451 77.4121 78.006 76.4383 78.006ZM76.4027 75.0774C77.2877 75.0774 78.1727 75.0917 79.0541 75.0739C80.0742 75.0526 80.721 74.4981 80.7566 73.6593C80.7921 72.7744 80.2661 72.1097 79.2318 72.0671C77.3517 71.9925 75.4609 71.996 73.5808 72.0778C72.5785 72.124 72.0134 72.8561 72.088 73.702C72.1591 74.5265 72.7669 75.0419 73.7514 75.0703C74.6363 75.0952 75.5178 75.0739 76.4027 75.0774Z" fill="#FE8300"/>
<path d="M44.8384 47.039C45.8443 47.039 46.8501 47.0177 47.8559 47.0426C50.2123 47.103 52.0782 48.9725 52.1173 51.2862C52.16 53.7564 50.3936 55.7431 47.9839 55.8249C45.8869 55.8924 43.7829 55.8888 41.6859 55.8249C39.3722 55.7538 37.588 53.7777 37.5987 51.4142C37.6093 49.0578 39.4148 47.135 41.7357 47.0497C42.7699 47.0106 43.8042 47.0426 44.8384 47.0426C44.8384 47.0426 44.8384 47.0426 44.8384 47.039ZM44.8562 52.9105C45.8016 52.9105 46.7506 52.9353 47.6924 52.9034C48.6591 52.8714 49.1958 52.3027 49.178 51.4035C49.1603 50.547 48.6378 49.9961 47.7031 49.9819C45.8123 49.9534 43.9179 49.9534 42.0271 49.9819C41.064 49.9961 40.5202 50.5861 40.5379 51.4817C40.5557 52.3347 41.0853 52.8749 42.0129 52.9069C42.9583 52.9389 43.9037 52.914 44.8491 52.914L44.8562 52.9105Z" fill="#FE8300"/>
</g>
<defs>
<clipPath id="clip0_286_256">
<rect width="90.9538" height="91" fill="white"/>
</clipPath>
</defs>
</svg>
