<svg width="689" height="100" viewBox="0 0 689 100" fill="none" xmlns="http://www.w3.org/2000/svg">
<path fill-rule="evenodd" clip-rule="evenodd" d="M198.592 1.05698C210.136 1.11855 216.307 10.9163 212.51 22.7026C208.671 34.4887 196.089 44.0533 184.502 43.9915C172.958 43.9299 166.615 34.3088 170.583 22.479C174.423 10.6929 187.048 0.99542 198.592 1.05698Z" fill="#FE8300"/>
<path fill-rule="evenodd" clip-rule="evenodd" d="M250.329 1.33253C262.045 1.39501 268.215 11.1927 264.376 22.9788C260.536 34.7649 247.954 44.3295 236.367 44.2677C224.823 44.2061 218.48 34.585 222.32 22.7546C226.288 10.9691 238.742 1.27074 250.329 1.33253Z" fill="#FE8300"/>
<path fill-rule="evenodd" clip-rule="evenodd" d="M301.458 1.60508C313.001 1.66664 319.172 11.4644 315.375 23.2507C311.536 35.0368 298.954 44.6014 287.367 44.5396C275.823 44.478 269.48 34.8569 273.448 23.0271C277.288 11.241 289.914 1.54352 301.458 1.60508Z" fill="#FE8300"/>
<path fill-rule="evenodd" clip-rule="evenodd" d="M232.965 54.4212C244.509 54.4827 250.852 64.1039 247.012 75.9343C243.173 87.7204 230.59 97.285 219.004 97.2232C207.417 97.1614 201.117 87.5405 204.956 75.71C208.796 63.8796 221.421 54.3596 232.965 54.4212Z" fill="#FE8300"/>
<path fill-rule="evenodd" clip-rule="evenodd" d="M54.326 61.308C58.5884 50.6782 54.7258 42.6682 44.169 42.6119C33.6121 42.5556 23.612 50.758 19.5227 61.1224C14.5619 73.9678 20.8817 79.9048 29.68 79.7741C38.3486 79.8204 49.6696 73.4004 54.326 61.308ZM70.3759 61.3936C62.4576 81.5912 43.1533 96.2687 23.0695 96.1615C12.6843 96.1062 5.87916 92.6522 2.30893 86.1529C-2.10774 77.4297 0.817211 68.1243 4.90865 57.3605C4.90865 57.3605 4.90936 57.2273 5.03905 57.0505L6.2143 53.9497L21.8755 14.2638L23.6181 9.39064C24.7909 6.73376 26.3889 4.8337 28.7151 3.20384C30.6104 1.88238 32.7601 1.13929 34.9487 1.15096C37.0944 1.1624 38.8499 1.92632 39.7004 3.39558C40.7649 4.95475 40.7547 6.86328 39.8823 9.52176L37.9689 14.2164C37.9689 14.2164 37.9689 14.2164 37.9682 14.3496L31.2266 31.1802C37.4657 28.1064 43.9559 26.2325 50.6076 26.2679C70.1335 26.3721 78.1624 41.7723 70.3759 61.3936Z" fill="#FE8300"/>
<path fill-rule="evenodd" clip-rule="evenodd" d="M127.804 26.6889C121.281 26.6541 114.791 28.5281 108.723 31.6027L110.465 26.8627L117.642 8.88047C118.686 6.35605 118.697 4.31437 117.546 2.79913C116.652 1.37402 114.94 0.610334 112.751 0.598663C110.563 0.586991 108.542 1.33077 106.518 2.65154C104.191 4.2814 102.593 6.31461 101.592 8.83926L70.3982 88.3006C69.3547 90.825 69.5155 92.8677 70.4945 94.382C71.5173 95.719 73.1011 96.482 75.2468 96.4934C77.2638 96.5042 79.5852 95.762 81.6092 94.4413C83.8056 92.9882 85.4046 90.9106 86.4051 88.386L97.8475 59.1969C102.36 49.9 111.795 43.0262 121.322 43.077C132.008 43.134 135.742 51.1433 131.608 61.7738L121.338 88.4835C120.293 91.1411 120.454 93.2281 121.434 94.5205C122.456 95.9907 124.04 96.7537 126.186 96.7651C128.332 96.7765 130.524 96.0337 132.721 94.5807C134.916 93.2608 136.515 91.1832 137.387 88.5691L147.658 61.8594C155.316 42.193 147.459 26.7937 127.804 26.6889Z" fill="#FE8300"/>
<path d="M684.171 75.7714C686.746 75.7852 688.517 73.7085 688.53 71.223C688.543 68.7818 687.05 67.0428 684.733 67.0305C682.201 67.017 680.43 69.0937 680.417 71.6679C680.447 73.9762 681.897 75.7593 684.171 75.7714ZM669.129 55.7621C667.45 64.719 661.838 70.9475 657.161 70.9225C652.826 70.8994 651.558 67.2086 651.578 63.4804C651.714 54.1601 658.672 45.0982 667.169 45.1435C669.057 45.1536 670.3 45.4265 671.114 45.6528L669.129 55.7621ZM672.503 74.9547C672.394 71.1813 672.898 65.2363 674.002 59.4277L677.442 41.9581C675.215 41.1917 671.742 40.5962 668.609 40.5794C654.276 40.503 645.799 52.8414 645.737 64.4701C645.702 70.8614 649.325 75.5856 655.118 75.6165C659.796 75.6414 664.315 73.18 667.914 66.2306L668.043 66.2313C667.638 69.6912 667.278 72.8851 667.267 74.9267L672.503 74.9547ZM639.834 68.8772C638.113 69.7113 635.532 70.7184 632.228 70.7008C626.864 70.6722 624.093 67.1066 624.122 61.6917C624.164 53.7913 629.574 45.2093 638.114 45.2549C640.56 45.2679 642.402 45.8991 643.686 46.5274L645.342 41.9645C644.315 41.382 641.53 40.4794 638.483 40.4632C626.682 40.4002 618.343 50.9195 618.282 62.3707C618.244 69.5166 622.375 75.3975 630.829 75.4426C635.25 75.4662 638.646 74.2859 640.324 73.4959L639.834 68.8772ZM638.544 37.0902L646.493 27.1902L642.03 27.1664L637.104 33.5317L636.975 33.531L634.005 27.1236L629.8 27.1012L634.51 37.0687L638.544 37.0902ZM613.019 35.2674C615.208 35.2791 616.761 33.6895 616.859 31.382C616.87 29.2959 615.591 27.78 613.531 27.769C611.514 27.7582 609.789 29.4357 609.777 31.6549C609.766 33.741 611.045 35.2569 613.019 35.2674ZM607.831 74.6098L614.319 41.0445L608.697 41.0145L602.209 74.5798L607.831 74.6098ZM586.245 74.4946L589.028 59.7291C590.486 51.8806 594.895 45.8677 599.745 45.8936C600.345 45.8968 600.903 45.9885 601.246 46.0347L602.349 40.3592C601.92 40.2682 601.277 40.2204 600.805 40.2178C596.385 40.1943 592.847 43.6375 590.72 48.2422L590.505 48.2411C590.862 45.6686 591.132 43.3176 591.445 40.9669L586.467 40.9403C586.107 44.0454 585.526 48.5252 584.687 52.8706L580.581 74.5088L586.245 74.539L586.245 74.4946ZM552.981 59.3149C554.748 49.959 560.312 44.7512 564.732 44.7747C569.495 44.8001 571.018 49.0249 570.999 52.5756C570.952 61.4081 564.808 70.6075 557.513 70.5686C554.852 70.5545 552.711 69.8329 551.258 68.6711L552.981 59.3149ZM547.549 88.0478L550.287 73.5483L550.416 73.549C551.7 74.3104 554.013 75.0773 557.532 75.0961C568.475 75.1544 576.817 64.0138 576.88 52.2075C576.913 46.0381 573.941 40.0302 566.817 39.9922C562.354 39.9684 557.962 42.6525 554.978 47.0308L554.849 47.0301L555.827 40.7325L550.677 40.7051C550.187 44.1201 549.476 48.5993 548.768 52.6346L542.013 88.0183L547.549 88.0478ZM520.818 54.9712C519.139 63.9281 513.527 70.1565 508.849 70.1316C504.515 70.1085 503.247 66.4177 503.267 62.6894C503.403 53.3692 510.361 44.3072 518.858 44.3525C520.746 44.3626 521.989 44.6356 522.803 44.8618L520.818 54.9712ZM524.192 74.1637C524.083 70.3904 524.587 64.4454 525.691 58.6368L529.131 41.1672C526.904 40.4007 523.431 39.8052 520.298 39.7885C505.965 39.7121 497.488 52.0504 497.426 63.6791C497.391 70.0705 501.014 74.7947 506.807 74.8256C511.485 74.8505 516.004 72.389 519.603 65.4397L519.732 65.4404C519.327 68.9003 518.967 72.0941 518.956 74.1358L524.192 74.1637ZM492.516 34.6248C494.705 34.6364 496.259 33.0469 496.357 30.7393C496.368 28.6533 495.088 27.1373 493.029 27.1263C491.012 27.1156 489.372 28.7935 489.274 31.0123C489.306 33.0985 490.585 34.6145 492.516 34.6248ZM488.495 40.3735L481.915 75.0479C480.591 81.965 478.35 83.7728 475.475 83.7575C474.316 83.7513 473.501 83.6138 472.901 83.4775L472.19 88.001C473.261 88.3618 474.506 88.4128 475.922 88.4204C478.711 88.4353 481.549 87.3408 483.492 85.1762C485.478 82.9675 486.656 79.423 487.673 73.7914L494.117 40.3591L488.495 40.3291L488.495 40.3735ZM464.829 44.0644C470.751 44.096 472.481 49.609 472.46 53.4705C472.418 61.3265 467.351 70.0434 460.699 70.008C455.893 69.9823 452.996 66.0166 453.025 60.5129C452.98 52.834 457.791 44.0269 464.829 44.0644ZM465.497 39.4963C454.854 39.4395 447.246 49.6964 447.188 60.7037C447.147 68.2934 451.749 74.5319 459.945 74.5756C470.931 74.6342 478.198 63.8873 478.254 53.5457C478.291 46.4443 474.38 39.5436 465.497 39.4963ZM437.677 73.7023L443.763 26.908L436.425 26.8689L422.076 53.8232C420.081 57.7185 418.085 61.8801 416.65 65.3345L416.436 65.3333C416.368 61.8709 415.876 57.6073 415.425 53.6545L411.963 26.7828L404.754 26.7443L392.617 73.5064L397.895 73.5346L404.296 48.2689C405.392 43.8362 406.889 36.7425 407.899 32.4425L408.071 32.4434C408.303 37.2383 408.746 42.6557 409.404 48.0742L412.659 73.3026L416.994 73.3257L430.692 47.6551C433.249 42.8751 435.768 37.3404 437.896 32.6024L438.154 32.6038C437.228 37.1262 436.205 44.0005 435.537 48.4355L432.141 73.7172L437.677 73.7467L437.677 73.7023Z" fill="white"/>
</svg>
