<svg width="96" height="96" viewBox="0 0 96 96" fill="none" xmlns="http://www.w3.org/2000/svg">
<g clip-path="url(#clip0_286_210)">
<path d="M55.9153 4.04134C57.5279 5.97566 58.8367 8.05617 59.9317 10.2641C62.2081 14.8525 63.5994 19.7296 64.5144 24.7491C64.6719 25.6113 64.9794 25.9486 65.8945 25.9411C71.0434 25.8999 76.1886 25.9224 81.3376 25.9186C82.4214 25.9186 82.4589 25.8662 82.0088 24.8878C80.01 20.5243 77.2349 16.7156 73.7623 13.4093C73.5598 13.2144 73.346 13.0307 73.1585 12.8208C72.5097 12.1048 72.4947 11.28 73.1022 10.6465C73.6985 10.028 74.456 9.9755 75.1911 10.594C76.6011 11.7861 77.8349 13.1544 79.0162 14.5676C84.4352 21.0491 87.5966 28.5127 88.4291 36.8948C89.3366 46.0341 87.3228 54.5586 82.4814 62.3746C81.9301 63.2668 81.9713 63.7991 82.6876 64.5263C85.579 67.4578 88.4216 70.4342 91.283 73.3995C92.5168 74.6777 93.7505 75.9598 94.9731 77.2494C96.0681 78.4002 96.2894 79.7197 95.6256 81.013C94.9769 82.2726 93.7018 82.8799 92.1567 82.64C89.6329 82.2501 87.1053 81.8677 84.5889 81.4366C83.8577 81.3129 83.3739 81.4554 82.9164 82.0851C81.3901 84.1769 79.83 86.2424 78.2324 88.2817C76.8749 90.0174 74.576 90.1073 73.226 88.5404C72.641 87.8619 72.4835 87.0522 72.4835 86.1862C72.4835 82.3176 72.4835 78.4489 72.4685 74.584C72.4685 74.2916 72.626 73.8905 72.3035 73.7331C72.0335 73.6019 71.8197 73.943 71.5984 74.1005C68.9171 76.001 66.0782 77.628 63.0069 78.8125C62.3056 79.0825 62.0881 79.4648 62.0956 80.2033C62.1331 83.7571 62.1181 87.3146 62.1106 90.8721C62.1031 93.946 60.078 95.9928 57.0329 95.9965C44.2111 96.0003 31.3894 95.9965 18.5676 96.004C17.7013 96.004 16.9251 95.9253 16.6663 94.9094C16.4263 93.9535 16.9926 93.1438 17.9751 93.065C18.3164 93.0388 18.6614 93.0538 19.0026 93.0538C31.2619 93.0538 43.5248 93.0538 55.7841 93.0538C56.0953 93.0538 56.4066 93.0575 56.7216 93.0538C58.3192 93.0126 59.1255 92.3078 59.1404 90.7146C59.1817 86.5348 59.1817 82.355 59.1404 78.1753C59.1255 76.6571 58.3117 75.9748 56.7179 75.971C49.3226 75.9635 41.931 75.971 34.5357 75.971C25.0216 75.971 15.5037 75.971 5.98963 75.971C5.64836 75.971 5.30335 75.9561 4.96209 75.9823C3.81454 76.0723 3.09826 76.7545 3.09076 77.9091C3.06451 82.3063 3.06451 86.7035 3.09076 91.1045C3.09826 92.364 3.9008 93.0275 5.3446 93.05C7.09217 93.08 8.83974 93.0613 10.5873 93.065C11.2136 93.065 11.6561 93.3574 11.9149 93.9235C12.1736 94.4933 12.0649 95.0219 11.6936 95.5017C11.3786 95.9065 10.9361 96.0078 10.4411 96.004C8.50597 95.9965 6.5709 96.0265 4.63957 95.9928C2.16823 95.9478 0.0493953 93.841 0.0306445 91.3556C-0.0031068 86.801 -0.00685694 82.2463 0.0306445 77.6917C0.0531454 74.8839 2.30698 72.9271 5.52086 72.9121C10.6361 72.8859 15.755 72.9046 20.8702 72.9009C21.2002 72.9009 21.549 72.9908 21.9578 72.7472C21.5677 72.4023 21.2115 72.0762 20.8477 71.7575C13.0587 64.8937 8.35222 56.3392 7.14092 46.0266C5.51336 32.1302 9.90478 20.2994 20.0902 10.7477C26.6867 4.54741 34.6295 1.08363 43.6598 0.206434C51.9252 -0.595784 59.733 0.959919 67.072 4.84355C67.3758 5.00475 67.6758 5.16969 67.957 5.36462C68.7108 5.88194 68.9096 6.66541 68.4896 7.39266C68.0546 8.14239 67.312 8.39356 66.4832 7.96621C64.3494 6.86035 62.2006 5.78822 59.9092 5.03849C58.6117 4.61488 57.3029 4.22502 55.9116 4.04134H55.9153ZM47.65 52.8079C52.1727 52.8079 56.6954 52.7967 61.218 52.8192C61.8706 52.8192 62.1481 52.6467 62.2343 51.957C62.5193 49.6366 62.6656 47.3086 62.8043 44.9732C63.1006 39.8825 62.8268 34.8255 62.2231 29.7723C62.1518 29.1875 61.9381 28.9738 61.3455 28.9776C52.2702 28.9888 43.1911 28.9926 34.1157 28.9738C33.4594 28.9738 33.2194 29.255 33.1632 29.836C33.0619 30.9194 32.9569 32.0065 32.8557 33.0899C32.2557 39.3202 32.4507 45.5392 33.1182 51.7508C33.2044 52.5418 33.5195 52.8379 34.3707 52.8304C38.7997 52.7854 43.2286 52.8079 47.6575 52.8079H47.65ZM20.934 52.8079C23.7091 52.8079 26.4879 52.7967 29.263 52.8154C29.8631 52.8154 30.2381 52.7105 30.1368 51.9907C29.8181 49.704 29.6981 47.4061 29.5518 45.1044C29.2368 40.1074 29.5405 35.1367 30.0468 30.1734C30.1668 28.9963 30.2081 28.9926 29.068 28.9888C23.6378 28.9888 18.2114 29.0038 12.7811 28.9701C11.9936 28.9663 11.6111 29.1987 11.3898 29.9747C9.28601 37.2659 9.28976 44.5421 11.3898 51.8333C11.6148 52.6168 12.0049 52.8417 12.7886 52.8267C15.5037 52.7817 18.2151 52.8117 20.9302 52.8079H20.934ZM74.4936 52.8079C77.1749 52.8079 79.8563 52.7667 82.5339 52.8304C83.4189 52.8529 83.7977 52.5493 84.0339 51.7208C86.119 44.4334 86.1228 37.1647 83.9589 29.8922C83.7527 29.2025 83.4189 28.9701 82.7064 28.9701C77.2537 28.9963 71.7972 28.9813 66.3445 28.9851C65.2944 28.9851 65.1782 29.1013 65.3207 30.0984C65.7557 33.1574 65.8945 36.235 65.9657 39.3164C66.0595 43.4287 65.8307 47.5335 65.3132 51.6159C65.1744 52.6955 65.2794 52.8042 66.3595 52.8042C69.0708 52.8042 71.7822 52.8042 74.4936 52.8042V52.8079ZM47.6275 25.9261C51.9627 25.9261 56.3016 25.9186 60.6368 25.9336C61.3493 25.9336 61.6381 25.7912 61.4805 24.9665C60.678 20.8204 59.5492 16.7756 57.8242 12.9145C56.5303 10.0205 54.9515 7.30644 52.5589 5.1472C49.5176 2.39941 46.1762 2.34318 43.0486 4.97101C41.8898 5.94567 40.9335 7.08902 40.1047 8.34107C36.8046 13.3231 35.147 18.9199 33.9957 24.7041C33.7595 25.8962 33.797 25.9261 34.9933 25.9261C39.2047 25.9261 43.4161 25.9261 47.6275 25.9261ZM47.6875 55.7544C43.3861 55.7544 39.0884 55.7582 34.787 55.7507C34.1907 55.7507 33.7182 55.7656 33.8832 56.5979C34.9333 61.9397 36.4221 67.1279 39.1147 71.915C39.5122 72.6235 39.9772 72.9196 40.8097 72.9159C45.3887 72.8784 49.9713 72.8821 54.554 72.9159C55.3716 72.9234 55.8591 72.6647 56.2716 71.9412C58.9492 67.2179 60.4268 62.0972 61.4843 56.8153C61.6605 55.9306 61.4393 55.7394 60.5955 55.7469C56.2941 55.7769 51.9964 55.7619 47.695 55.7619L47.6875 55.7544ZM39.5384 4.02259C39.3434 3.88389 39.2009 3.98136 39.0547 4.0151C35.657 4.79107 32.4394 6.03938 29.4093 7.74129C22.1715 11.8049 16.7825 17.5966 13.2499 25.1127C13.0324 25.5775 12.8824 25.9299 13.6512 25.9299C19.0739 25.9186 24.5004 25.9186 29.9231 25.9299C30.4593 25.9299 30.7068 25.7087 30.7931 25.1877C30.9281 24.3592 31.1044 23.5345 31.2881 22.7135C32.5407 17.0155 34.3145 11.5237 37.6071 6.63168C38.2109 5.73574 38.8897 4.89604 39.5384 4.02259ZM21.774 55.7544C19.1226 55.7544 16.4713 55.7694 13.8199 55.7432C13.1224 55.7357 12.8336 55.8106 13.2049 56.6091C16.25 63.1693 20.7877 68.4399 26.7917 72.4548C27.133 72.6834 27.4705 72.8896 27.9055 72.8859C30.3993 72.8821 32.8969 72.8784 35.3908 72.8934C35.9983 72.8934 36.0846 72.6909 35.8183 72.1661C33.3207 67.2928 31.8169 62.0972 30.8568 56.7328C30.7218 55.9756 30.4331 55.7132 29.6381 55.7282C27.0204 55.7806 24.3991 55.7469 21.7777 55.7469L21.774 55.7544ZM72.4685 65.2536C72.4685 64.0053 72.4385 62.7569 72.476 61.5124C72.5135 60.1966 73.1997 59.2744 74.4035 58.7758C75.6036 58.281 76.7286 58.4535 77.6924 59.3644C78.1687 59.8142 78.6375 60.2753 79.0687 60.7664C79.4962 61.25 79.7475 61.13 80.04 60.6314C80.7938 59.3381 81.5176 58.0336 82.1701 56.6803C82.5114 55.9681 82.4289 55.7319 81.5663 55.7394C76.2974 55.7731 71.0284 55.7731 65.7557 55.7394C64.9457 55.7319 64.6794 56.0431 64.5444 56.774C63.5281 62.3183 62.0056 67.6977 59.3055 72.6872C59.0767 73.107 59.1404 73.3657 59.568 73.5869C60.423 74.0255 61.0905 74.6777 61.518 75.5399C61.7506 76.0048 62.0356 75.9598 62.4293 75.7911C65.872 74.3329 69.0221 72.4098 71.9022 70.0256C72.3297 69.6733 72.4835 69.2609 72.4722 68.7211C72.446 67.5665 72.4647 66.4157 72.4685 65.2611V65.2536ZM75.6373 61.5536V86.666C75.9674 86.2537 76.1661 86.0213 76.3499 85.7738C77.8574 83.787 79.3725 81.804 80.8613 79.8022C81.7951 78.5464 82.9839 78.0666 84.5364 78.3552C86.2203 78.6701 87.9116 78.9512 89.6104 79.1612C90.6379 79.2886 91.6505 79.6373 92.9518 79.5173C87.1315 73.4744 81.4576 67.589 75.6373 61.5499V61.5536Z" fill="#FE8300"/>
<path d="M27.976 84.5554C28.5573 83.1459 29.0448 82.0025 29.5023 80.8517C29.7873 80.1319 30.1998 79.5959 31.0549 79.5921C31.9099 79.5921 32.3262 80.1244 32.6149 80.8404C33.0762 81.995 33.5637 83.1384 34.16 84.5779C34.6213 83.1909 34.9963 82.0625 35.3788 80.9342C35.5588 80.4018 35.705 79.8545 35.9376 79.3485C36.2863 78.595 36.9051 78.3101 37.7151 78.565C38.5027 78.8124 38.9152 79.4947 38.7164 80.3194C38.5102 81.1666 38.2176 81.9913 37.9514 82.8235C37.2651 84.9602 36.5676 87.0932 35.8776 89.23C35.6338 89.9835 35.1725 90.5008 34.3437 90.5083C33.56 90.5158 33.1024 90.036 32.8212 89.3387C32.2774 87.9929 31.7149 86.6509 31.0661 85.084C30.4323 86.6022 29.8811 87.8805 29.3673 89.1775C29.071 89.931 28.6548 90.5308 27.7735 90.5195C26.8435 90.5045 26.4459 89.8598 26.1909 89.0538C25.3359 86.3473 24.4584 83.652 23.5883 80.9529C23.5508 80.8329 23.5021 80.7167 23.4683 80.5968C23.1908 79.5959 23.5321 78.8611 24.4096 78.565C25.2496 78.2801 25.9997 78.685 26.3484 79.6821C26.7797 80.9192 27.1585 82.1712 27.5635 83.4158C27.6572 83.7082 27.7735 83.9931 27.9797 84.5554H27.976Z" fill="#FE8300"/>
<path d="M47.8749 85.0689C47.2224 86.6433 46.6749 87.9629 46.1311 89.2824C45.8386 89.9946 45.4073 90.5607 44.5598 90.5195C43.6823 90.4782 43.281 89.8822 43.0335 89.1062C42.141 86.3172 41.2184 83.5357 40.3184 80.7466C39.9546 79.622 40.2846 78.8573 41.2259 78.5574C42.1072 78.2763 42.816 78.6999 43.1835 79.7795C43.6935 81.2715 44.1773 82.7747 44.7661 84.5516C45.2611 83.382 45.6474 82.4785 46.0299 81.5788C46.1761 81.234 46.3149 80.8853 46.4686 80.5442C46.7349 79.9519 47.1812 79.607 47.8449 79.5958C48.5575 79.5808 49.03 79.9557 49.3 80.5742C49.8325 81.7963 50.335 83.0333 50.8976 84.3866C51.4451 83.5806 51.5501 82.7409 51.8351 81.98C52.1276 81.1927 52.3489 80.3755 52.6339 79.5846C52.9601 78.6886 53.6427 78.3137 54.4414 78.5462C55.3377 78.8086 55.7652 79.5358 55.4765 80.533C55.0452 82.0287 54.5427 83.5057 54.0627 84.9902C53.6127 86.3847 53.1439 87.7754 52.6976 89.1699C52.4576 89.9197 52.0189 90.4595 51.1976 90.5045C50.3613 90.5494 49.9038 90.0134 49.6113 89.2899C49.075 87.9666 48.5237 86.6508 47.8712 85.0726L47.8749 85.0689Z" fill="#FE8300"/>
<path d="M11.2798 84.2741C11.7185 83.217 12.1648 82.1599 12.5961 81.0952C12.9111 80.3155 13.2599 79.5845 14.2724 79.592C15.2249 79.6033 15.5887 80.2705 15.8925 81.0353C16.335 82.1561 16.8112 83.2695 17.3588 84.589C17.8688 83.0371 18.3075 81.6913 18.7501 80.3455C18.8588 80.0194 18.9526 79.6857 19.0988 79.3783C19.4626 78.6099 20.1976 78.3025 20.9589 78.5761C21.7389 78.8573 22.1589 79.5508 21.9077 80.353C20.9552 83.3857 19.9651 86.4071 18.9751 89.4286C18.7613 90.0808 18.2775 90.4744 17.5875 90.5082C16.89 90.5382 16.395 90.1671 16.125 89.5373C15.5249 88.139 14.9437 86.7295 14.3324 85.2675C13.9274 85.5262 13.9086 85.931 13.7699 86.2497C13.3236 87.2806 12.9073 88.3227 12.4798 89.3611C12.1948 90.0546 11.726 90.5382 10.9348 90.4969C10.1622 90.4594 9.69721 89.9796 9.4647 89.2599C8.54217 86.4109 7.60463 83.5694 6.70085 80.7166C6.34458 79.592 6.7196 78.8273 7.67213 78.5461C8.54967 78.2875 9.20219 78.7186 9.58096 79.8394C10.076 81.3089 10.556 82.7859 11.0398 84.2591C11.1185 84.2629 11.1973 84.2704 11.276 84.2741H11.2798Z" fill="#FE8300"/>
</g>
<defs>
<clipPath id="clip0_286_210">
<rect width="96" height="96" fill="white"/>
</clipPath>
</defs>
</svg>
