<svg width="69" height="100" viewBox="0 0 69 100" fill="none" xmlns="http://www.w3.org/2000/svg">
<g clip-path="url(#clip0_512_786)">
<path d="M0.0435057 49.5086C0.0435057 35.4239 0.0390849 21.3392 0.0479265 7.25455C0.0479265 3.74001 2.30254 0.897424 5.65793 0.150308C6.2238 0.0265249 6.82061 0.00884162 7.40857 0.00884162C22.5101 0 37.616 0 52.7219 0C56.9216 0 60.0118 2.91331 60.1091 7.13961C60.2107 11.6975 60.1488 16.2597 60.1267 20.8176C60.1179 22.3162 59.3708 23.1253 58.1595 23.0943C56.9614 23.0678 56.2983 22.2499 56.2983 20.7248C56.2895 16.3482 56.2983 11.9716 56.2895 7.59495C56.285 5.13698 54.9411 3.73558 52.5053 3.70022C49.9323 3.66485 47.3594 3.70906 44.7865 3.67811C44.088 3.66927 43.7034 3.908 43.5001 4.58438C43.2083 5.57022 42.859 6.53838 42.5186 7.51096C42.1782 8.47911 41.5328 8.99193 40.4541 8.98751C33.5444 8.96982 26.6347 8.96982 19.725 8.98751C18.6065 8.98751 17.9257 8.4968 17.5853 7.45791C17.2626 6.48091 16.9133 5.51275 16.6083 4.52691C16.4359 3.96547 16.1574 3.66927 15.5208 3.67369C12.8373 3.70022 10.1539 3.63833 7.47047 3.70464C5.19817 3.76211 3.88077 5.16351 3.88077 7.43138C3.87193 35.4903 3.87193 63.5491 3.88077 91.608C3.88077 93.7786 5.13628 95.096 7.29805 95.2906C7.62519 95.3215 7.96118 95.3082 8.28832 95.3082C22.8416 95.3082 37.3949 95.3082 51.9527 95.3038C52.4655 95.3038 52.9871 95.2773 53.4823 95.1756C55.2727 94.7954 56.2718 93.5797 56.2806 91.7406C56.2983 87.364 56.285 82.9874 56.2939 78.6108C56.2939 78.2085 56.2718 77.7886 56.3646 77.404C56.5812 76.48 57.1781 75.9318 58.1551 75.9097C59.1232 75.8876 59.7686 76.3651 60.0029 77.3111C60.109 77.7311 60.1312 78.182 60.1312 78.6197C60.14 82.8504 60.1179 87.0767 60.14 91.3074C60.1709 96.2012 56.4884 99.0836 52.3903 99.0482C37.5054 98.9333 22.6206 98.9245 7.73571 99.0482C3.35469 99.1057 -0.0360689 95.6707 -0.000702422 91.3207C0.114239 77.3863 0.0435057 63.4475 0.0435057 49.5086ZM30.052 3.6958C27.1873 3.6958 24.3226 3.68696 21.4579 3.70464C21.0998 3.70464 20.5207 3.52339 20.5561 4.17324C20.587 4.66395 20.7108 5.22982 21.4004 5.28287C21.5817 5.29613 21.7674 5.29613 21.953 5.29613C27.3906 5.29613 32.8282 5.29613 38.2614 5.29613C38.4824 5.29613 38.7123 5.31381 38.9201 5.25634C39.4904 5.09277 39.5744 4.54901 39.5921 4.10251C39.6186 3.51454 39.0748 3.70906 38.7565 3.70906C35.8565 3.69138 32.952 3.70022 30.052 3.70022V3.6958Z" fill="#FE8300"/>
<path d="M57.9923 72.5366C56.193 72.5366 54.3893 72.5455 52.59 72.5366C49.4689 72.5145 47.1215 70.3041 47.0596 67.1565C46.9844 63.443 46.9889 59.7295 47.0596 56.0161C47.1171 52.9259 49.4292 50.6757 52.6166 50.6094C56.2151 50.5387 59.8181 50.5343 63.421 50.6094C66.7764 50.6801 68.978 52.9966 68.9868 56.3211C69.0001 59.8489 69.0001 63.3811 68.9868 66.9089C68.9736 70.2643 66.7278 72.5145 63.3945 72.5322C61.5952 72.541 59.7915 72.5322 57.9923 72.5322V72.5366ZM50.8924 61.6349C50.8924 63.359 50.8792 65.0876 50.8924 66.8117C50.9057 68.1644 51.4539 68.8055 52.8155 68.8187C56.2991 68.8629 59.7871 68.8629 63.2751 68.8143C64.597 68.7966 65.1363 68.1954 65.1451 66.878C65.1672 63.3546 65.1672 59.8268 65.1451 56.3034C65.1363 54.9948 64.566 54.4467 63.2353 54.4378C59.7473 54.4201 56.2637 54.4201 52.7757 54.4378C51.4804 54.4467 50.9145 55.0302 50.8969 56.3432C50.8748 58.1071 50.8924 59.8666 50.888 61.6305L50.8924 61.6349Z" fill="#FE8300"/>
<path d="M33.895 26.4806C35.7694 26.4806 37.6438 26.4629 39.5183 26.485C42.2857 26.5159 44.5491 28.5672 44.7348 31.3125C45.0001 35.278 45.0133 39.2523 44.7481 43.2133C44.5403 46.3433 42.405 48.3238 39.2486 48.3989C35.65 48.4874 32.0427 48.4874 28.4441 48.3989C25.3407 48.3238 23.1215 46.3919 22.927 43.3327C22.6706 39.3009 22.6042 35.2426 22.9756 31.2153C23.2408 28.3064 25.4557 26.4983 28.3822 26.4806C30.2213 26.4717 32.0559 26.4806 33.895 26.4806ZM33.727 44.5838C35.4909 44.5838 37.2504 44.6015 39.0143 44.5794C40.3936 44.5617 41.0346 43.9295 41.0434 42.5414C41.0655 39.1241 41.0655 35.7068 41.0434 32.2895C41.0346 30.9102 40.3803 30.2073 39.032 30.1941C35.5793 30.1587 32.1311 30.1587 28.6784 30.1941C27.3212 30.2073 26.667 30.9146 26.6581 32.2674C26.6404 35.6847 26.6404 39.102 26.6581 42.5193C26.667 43.9649 27.2947 44.5661 28.7713 44.5838C30.4247 44.6015 32.078 44.5838 33.727 44.5838Z" fill="#FE8300"/>
<path d="M58.0495 26.4808C59.8488 26.4808 61.6525 26.472 63.4517 26.4808C66.7099 26.4985 68.9733 28.7619 68.9866 32.0466C69.0043 35.5744 68.9999 39.1066 68.9866 42.6345C68.9778 45.9898 66.8248 48.3108 63.4694 48.3948C59.8709 48.4832 56.2679 48.492 52.6694 48.3948C49.1858 48.3019 47.0505 45.9854 47.0373 42.4974C47.024 39.1155 47.0815 35.7336 47.0196 32.3516C46.9577 28.8592 49.6588 26.2067 52.9744 26.4587C54.6543 26.5869 56.3519 26.4808 58.0451 26.4808H58.0495ZM65.1582 37.4842C65.1582 35.7203 65.1759 33.9608 65.1538 32.1969C65.1361 30.8132 64.6056 30.212 63.2307 30.1943C59.7471 30.1501 56.2591 30.1501 52.7711 30.1943C51.4625 30.212 50.9055 30.853 50.8966 32.135C50.879 35.623 50.879 39.1111 50.8966 42.5991C50.9011 43.9828 51.4669 44.5619 52.8241 44.5663C56.2723 44.584 59.725 44.584 63.1732 44.5663C64.6144 44.5619 65.1361 44.0137 65.1538 42.5416C65.1714 40.8529 65.1538 39.1641 65.1538 37.4754L65.1582 37.4842Z" fill="#FE8300"/>
<path d="M33.8589 72.5368C32.1701 72.5368 30.4769 72.5368 28.7882 72.5368C25.3046 72.5324 23.1075 70.7597 22.9174 67.3291C22.7052 63.5184 22.7228 59.6811 22.9041 55.866C23.0544 52.6918 25.3046 50.6848 28.4832 50.614C32.0463 50.5345 35.6139 50.5433 39.1771 50.614C42.3733 50.6759 44.544 52.652 44.7517 55.8439C45.0126 59.8756 45.0258 63.9295 44.712 67.9613C44.5263 70.3927 42.254 72.4307 39.8137 72.5324C39.7385 72.5324 39.6678 72.5368 39.5927 72.5368C37.6829 72.5368 35.7687 72.5368 33.8589 72.5368ZM26.6529 61.644C26.6529 63.3327 26.6397 65.0259 26.6529 66.7146C26.6662 68.1249 27.3205 68.8189 28.7484 68.8278C32.1613 68.8543 35.5786 68.8587 38.9914 68.8278C40.353 68.8145 41.025 68.1249 41.0338 66.7633C41.0604 63.3106 41.0604 59.8579 41.0338 56.4009C41.025 55.0879 40.3663 54.4469 39.0401 54.438C35.5874 54.4159 32.1392 54.4203 28.6865 54.438C27.2895 54.4469 26.6706 55.0702 26.6529 56.4628C26.6308 58.1913 26.6485 59.9154 26.6441 61.644H26.6529Z" fill="#FE8300"/>
<path d="M30.0082 91.9529C27.7668 91.9529 25.5255 91.9617 23.2841 91.9529C21.9225 91.944 21.1577 91.2632 21.1577 90.1138C21.1577 88.9644 21.9225 88.2748 23.2797 88.2703C27.7978 88.2571 32.3203 88.2615 36.8383 88.2703C38.1646 88.2703 38.978 88.9953 38.9824 90.1094C38.9824 91.2234 38.169 91.9484 36.8472 91.9573C34.5705 91.9705 32.2893 91.9573 30.0126 91.9573L30.0082 91.9529Z" fill="#FE8300"/>
</g>
<defs>
<clipPath id="clip0_512_786">
<rect width="69" height="99.0659" fill="white"/>
</clipPath>
</defs>
</svg>
