<svg width="102" height="85" viewBox="0 0 102 85" fill="none" xmlns="http://www.w3.org/2000/svg">
<g clip-path="url(#clip0_286_243)">
<path d="M50.8537 0.0364745C66.299 0.0364745 81.7484 0.0728736 97.1938 7.54134e-05C99.8185 -0.0120576 101.614 1.43986 101.602 4.3437C101.525 23.0488 101.566 41.7539 101.562 60.459C101.562 63.4599 100.267 64.7541 97.2706 64.7581C95.2161 64.7581 93.1656 64.7905 91.1111 64.742C90.2618 64.7217 90.015 65.0291 90.0231 65.8501C90.0555 69.7852 90.0798 73.7244 90.0231 77.6596C89.9786 80.6079 88.555 82.8242 85.9464 84.1467C83.2408 85.5177 80.5715 85.1982 78.153 83.3945C76.0904 81.8576 75.2289 79.6737 75.2208 77.146C75.2047 73.4454 75.1844 69.7448 75.237 66.0442C75.2532 65.021 74.9377 64.7096 73.9186 64.7339C71.1603 64.7986 68.398 64.7784 65.6398 64.742C64.8552 64.7298 64.564 64.9806 64.5882 65.7813C64.6368 67.4638 64.6206 69.1462 64.5963 70.8287C64.5842 71.4798 64.839 71.7346 65.4861 71.7225C66.663 71.6982 67.8439 71.7023 69.0209 71.7225C70.0764 71.7427 70.7316 72.2604 70.7559 73.0369C70.7842 73.8539 70.1007 74.4241 69.0047 74.4282C56.8878 74.4362 44.775 74.4362 32.6581 74.4282C31.5419 74.4282 30.8625 73.8983 30.8544 73.0895C30.8463 72.2806 31.5257 71.7427 32.642 71.7225C33.8189 71.7023 34.9998 71.6982 36.1767 71.7225C36.7753 71.7306 37.022 71.492 37.0179 70.8853C36.9977 69.1018 37.0018 67.3182 37.0179 65.5346C37.022 64.9765 36.7874 64.7298 36.2333 64.7581C35.93 64.7743 35.6267 64.7581 35.3234 64.7581C24.9901 64.7581 14.6608 64.7581 4.3275 64.7581C1.3266 64.7581 0.0485875 63.468 0.0485875 60.4549C0.0404988 41.7498 0.0768979 23.0448 5.5308e-05 4.33966C-0.0120777 1.27404 1.9737 -0.00801328 4.31133 7.54134e-05C19.8254 0.0647849 35.3395 0.0364745 50.8537 0.0364745ZM50.797 2.74214C35.4528 2.74214 20.1045 2.74214 4.76025 2.74214C2.7219 2.74214 2.61675 2.85134 2.61675 4.93418C2.61675 23.2672 2.61675 41.6042 2.61675 59.9373C2.61675 61.923 2.74617 62.0525 4.73598 62.0525C27.352 62.0525 49.9639 62.0525 72.5799 62.0525C74.3378 62.0525 75.2154 61.187 75.2127 59.456C75.2127 58.4314 74.6951 57.9191 73.6597 57.9191C52.257 57.9191 30.8544 57.9191 9.44765 57.9191C9.04321 57.9191 8.63878 57.9111 8.23434 57.9111C7.33245 57.9111 6.87949 57.4055 6.77838 56.5562C6.73389 56.1922 6.75007 55.8161 6.75007 55.448C6.75007 40.0755 6.75007 24.6989 6.75007 9.32633C6.75007 9.05536 6.74198 8.78844 6.75816 8.51747C6.82691 7.33247 7.2637 6.8876 8.45678 6.87951C11.1139 6.86737 13.7751 6.86737 16.4322 6.87951C17.4635 6.88355 18.0459 7.34865 18.0702 8.12516C18.0985 8.93403 17.4757 9.44362 16.4039 9.44767C14.5516 9.4598 12.7033 9.44767 10.851 9.45171C9.92623 9.45171 9.46382 9.91142 9.46382 10.8308C9.46382 25.164 9.46382 39.4931 9.46382 53.8263C9.46382 54.832 9.98554 55.3348 11.029 55.3348C31.8938 55.3348 52.7585 55.3348 73.6233 55.3348C73.8579 55.3348 74.0965 55.3146 74.3311 55.3348C74.9943 55.3914 75.233 55.076 75.2168 54.441C75.1925 53.4987 75.1925 52.5563 75.2208 51.614C75.2936 49.3734 76.6687 47.9984 78.9174 47.9256C79.7909 47.8973 80.6686 47.9013 81.5421 47.9215C83.4228 47.9701 85.3155 47.7476 87.184 48.0388C88.8948 48.3098 89.9787 49.604 90.0272 51.3269C90.0555 52.2692 90.0878 53.2156 90.0191 54.1498C89.9503 55.08 90.282 55.3672 91.2162 55.3591C92.2475 55.351 92.1343 54.7322 92.1343 54.0851C92.1343 39.7196 92.1343 25.3541 92.1343 10.9886C92.1343 9.9613 91.6247 9.44767 90.6055 9.44767C69.033 9.44767 47.4604 9.44767 25.892 9.44767C25.4875 9.44767 25.079 9.47193 24.6827 9.41936C23.9345 9.32229 23.5341 8.83292 23.5381 8.11303C23.5381 7.42549 23.9709 6.99275 24.6625 6.89973C25.0265 6.8512 25.4026 6.86737 25.7706 6.86737C48.0145 6.86737 70.2584 6.86737 92.5064 6.86737C92.842 6.86737 93.1777 6.86737 93.5174 6.88355C94.2252 6.91591 94.6458 7.31225 94.7752 7.97957C94.8561 8.40422 94.8521 8.8491 94.8521 9.28589C94.8521 24.6948 94.8521 40.0998 94.8521 55.5087C94.8521 55.8444 94.8642 56.1841 94.8278 56.5158C94.7267 57.4136 94.2535 57.9191 93.2991 57.903C92.4578 57.8908 91.6166 57.9151 90.7754 57.903C90.2658 57.8949 90.0353 58.1173 90.0434 58.6269C90.0555 59.4358 90.0757 60.2446 90.0353 61.0495C89.9948 61.7896 90.286 62.0686 91.0302 62.0565C93.016 62.0242 95.0017 62.0484 96.9875 62.0484C98.8236 62.0484 98.9975 61.8745 98.9975 60.0222C98.9975 41.6204 98.9975 23.2187 98.9975 4.81689C98.9975 2.88369 98.856 2.7381 96.943 2.7381C81.5624 2.7381 66.1858 2.7381 50.8051 2.7381L50.797 2.74214ZM87.3296 63.5893C87.3296 59.7229 87.3336 55.8525 87.3296 51.9861C87.3296 50.797 87.1597 50.6353 85.9869 50.6312C83.6978 50.6231 81.4127 50.6474 79.1236 50.6191C78.2622 50.611 77.9184 50.9629 77.9184 51.8243C77.9305 59.6259 77.9305 67.4274 77.9184 75.233C77.9184 75.9246 78.157 76.2077 78.8567 76.1915C79.8637 76.1672 80.8789 76.1551 81.8819 76.2238C82.6988 76.2805 83.3459 76.7092 83.3014 77.6151C83.261 78.5008 82.6301 78.8769 81.7767 78.8891C80.8344 78.8972 79.8921 78.9174 78.9497 78.8891C78.2339 78.8688 78.1206 79.1277 78.4482 79.7222C79.338 81.3278 80.6807 82.1771 82.5249 82.2418C84.4339 82.3065 85.8049 81.433 86.7796 79.8516C87.1719 79.2167 87.091 78.8729 86.2417 78.881C85.3883 78.8931 84.7655 78.4765 84.7655 77.5787C84.7655 76.693 85.3964 76.2117 86.2255 76.2279C87.2528 76.2481 87.3458 75.7062 87.3377 74.8932C87.3134 71.128 87.3256 67.3586 87.3256 63.5934L87.3296 63.5893ZM50.8011 64.7622C47.4402 64.7622 44.0753 64.7784 40.7145 64.75C39.9784 64.746 39.6872 64.9967 39.7034 65.7409C39.7357 67.4193 39.7317 69.1018 39.7034 70.7842C39.6913 71.4798 39.9784 71.7306 40.666 71.7265C47.424 71.7144 54.1822 71.7144 60.9443 71.7265C61.6318 71.7265 61.9149 71.4758 61.9028 70.7802C61.8785 69.1341 61.8624 67.484 61.9109 65.838C61.9352 64.9927 61.6157 64.7339 60.7906 64.746C57.4621 64.7824 54.1336 64.7622 50.8051 64.7622H50.8011Z" fill="#FE8300"/>
<path d="M50.7765 43.5212C51.6581 43.4969 52.5236 43.4079 53.381 43.1976C54.4285 42.9428 55.1079 43.2623 55.3304 44.0631C55.5528 44.8558 55.0837 45.4786 54.0443 45.7698C47.3428 47.6585 40.0508 43.319 38.4736 36.5002C36.5889 28.363 42.7606 20.7192 51.1081 20.8445C57.4496 20.9416 62.8812 26.0698 63.411 32.4073C63.5242 33.7662 63.411 35.0928 63.14 36.4112C62.9297 37.4304 62.2705 37.8915 61.4373 37.6892C60.6811 37.5032 60.2968 36.8157 60.5395 35.8369C61.9105 30.3164 58.0846 24.6139 52.3699 23.6634C47.0354 22.7777 41.6362 26.7857 40.9244 32.1485C40.2126 37.5355 43.9011 42.3847 48.8756 43.3271C49.4984 43.4443 50.1415 43.4605 50.7765 43.5212Z" fill="#FE8300"/>
<path d="M47.9297 33.5277C47.9297 32.0515 47.9297 30.5753 47.9297 29.0991C47.9297 28.4197 48.1076 27.8373 48.7547 27.4976C49.4018 27.1579 49.9155 27.4693 50.417 27.8413C52.3502 29.2892 54.2914 30.729 56.2125 32.1931C57.3975 33.095 57.3935 33.9483 56.2044 34.8583C54.2834 36.3223 52.3421 37.7621 50.4089 39.21C49.9114 39.5821 49.3897 39.8814 48.7426 39.5619C48.0712 39.2302 47.9297 38.6317 47.9297 37.9603C47.9297 36.4841 47.9297 35.0079 47.9297 33.5317V33.5277ZM50.6475 33.4306C50.6475 33.9685 50.6515 34.4053 50.6475 34.8381C50.6354 35.4407 50.8376 35.5782 51.3391 35.1859C51.8123 34.8138 52.2733 34.4175 52.791 34.1141C53.5392 33.6693 53.43 33.3174 52.7667 32.9332C52.6211 32.8523 52.5038 32.7229 52.3582 32.642C51.8203 32.3427 51.3431 31.4691 50.8254 31.7441C50.3482 31.9989 50.7324 32.913 50.6515 33.4266L50.6475 33.4306Z" fill="#FE8300"/>
<path d="M58.6387 43.0076C57.6357 43.0076 57.0088 41.9722 57.5265 41.0784C57.9309 40.3869 58.485 39.7721 59.1402 39.3151C59.9733 38.7327 61.0653 39.3151 61.13 40.31C61.1866 41.2443 59.5608 43.0076 58.6387 43.0076Z" fill="#FE8300"/>
<path d="M81.736 54.4004C81.7117 55.1769 80.9999 55.8644 80.2234 55.8563C79.3902 55.8523 78.6825 55.1243 78.7108 54.2952C78.735 53.5106 79.4388 52.8352 80.2234 52.8352C81.0565 52.8352 81.7602 53.5632 81.7319 54.3963L81.736 54.4004Z" fill="#FE8300"/>
<path d="M80.2489 61.9149C79.4117 61.923 78.6999 61.2071 78.7161 60.374C78.7282 59.5934 79.4239 58.9018 80.2085 58.8937C81.0416 58.8857 81.7534 59.6015 81.7413 60.4346C81.7291 61.2112 81.0295 61.9068 80.2489 61.9149Z" fill="#FE8300"/>
<path d="M86.5847 60.3984C86.5928 61.1749 85.9133 61.8867 85.1328 61.915C84.2956 61.9474 83.5716 61.2517 83.5635 60.4146C83.5555 59.63 84.2268 58.9262 85.0155 58.8979C85.8446 58.8656 86.5766 59.5652 86.5847 60.3984Z" fill="#FE8300"/>
<path d="M80.1799 63.7389C81.009 63.7146 81.7369 64.4183 81.741 65.2515C81.741 66.028 81.0575 66.7357 80.2769 66.756C79.4398 66.7802 78.7199 66.0806 78.7158 65.2474C78.7158 64.4628 79.3912 63.7632 80.1799 63.7389Z" fill="#FE8300"/>
<path d="M86.5846 65.2636C86.5846 66.0402 85.889 66.7439 85.1125 66.7601C84.2753 66.7762 83.5594 66.0725 83.5635 65.2394C83.5675 64.4548 84.2551 63.7592 85.0397 63.743C85.8688 63.7228 86.5927 64.4346 86.5887 65.2677L86.5846 65.2636Z" fill="#FE8300"/>
<path d="M80.2234 72.0095C79.3862 72.0014 78.6825 71.2775 78.7108 70.4484C78.7391 69.6638 79.4388 68.9884 80.2274 68.9924C81.0606 68.9965 81.7643 69.7245 81.736 70.5536C81.7117 71.3341 80.9999 72.0176 80.2234 72.0095Z" fill="#FE8300"/>
<path d="M85.1004 68.9927C85.9376 69.0129 86.6251 69.749 86.5807 70.5821C86.5402 71.3586 85.8163 72.034 85.0438 72.0138C84.2066 71.9936 83.5191 71.2535 83.5636 70.4244C83.6081 69.6357 84.3158 68.9765 85.1045 68.9967L85.1004 68.9927Z" fill="#FE8300"/>
</g>
<defs>
<clipPath id="clip0_286_243">
<rect width="101.602" height="85" fill="white"/>
</clipPath>
</defs>
</svg>
