<svg width="56" height="99" viewBox="0 0 56 99" fill="none" xmlns="http://www.w3.org/2000/svg">
<g clip-path="url(#clip0_512_767)">
<path d="M0 49.5059C0 36.0244 0 22.5428 0 9.06129C0.00386734 5.32931 1.69003 2.59897 4.97726 0.881867C6.03692 0.328838 7.18551 0.00784909 8.40373 0.00784909C21.3322 0.00784909 34.2569 -0.0192223 47.1854 0.0271858C51.4317 0.0426551 55.1096 3.58514 55.5427 7.7928C55.651 8.85245 55.6819 9.90823 55.6819 10.9679C55.6819 25.0914 55.6819 39.2188 55.6819 53.3423C55.6819 53.9224 55.7129 54.5025 55.5234 55.0633C55.2295 55.945 54.6455 56.4671 53.6903 56.5058C52.7389 56.5445 52.0234 56.0417 51.6986 55.1406C51.5168 54.6417 51.5439 54.1274 51.5439 53.613C51.5439 42.1889 51.5439 30.7687 51.5439 19.3445C51.5439 18.3829 51.0785 17.902 50.1478 17.902C35.2276 17.902 20.3074 17.902 5.38334 17.902C4.46549 17.902 4.00656 18.3558 4.00656 19.2633C4.00656 38.1514 4.00656 57.0356 4.00656 75.9237C4.00656 76.79 4.4526 77.2244 5.34466 77.227C20.2997 77.227 35.2508 77.227 50.2058 77.227C51.0953 77.227 51.5413 76.7913 51.5439 75.9198C51.5439 73.9552 51.5439 71.9945 51.5439 70.0299C51.5439 69.5426 51.5516 69.0592 51.7605 68.6106C52.1549 67.7636 52.824 67.3382 53.7637 67.4001C54.6687 67.462 55.2527 67.9686 55.504 68.8233C55.6201 69.2177 55.6781 69.647 55.6781 70.0569C55.6897 76.6198 55.7167 83.1827 55.6781 89.7494C55.6471 94.2935 53.0483 97.6427 48.829 98.7719C48.1058 98.9653 47.371 98.9924 46.6285 98.9924C34.0867 98.9924 21.5449 99.004 9.00316 98.9885C3.77839 98.9808 0.023204 95.1985 0.0154694 89.9467C0 76.4651 0.011602 62.9836 0.011602 49.502L0 49.5059ZM27.8023 81.2336C20.2184 81.2336 12.6307 81.2413 5.04688 81.2181C4.26181 81.2181 3.97562 81.4385 3.99109 82.2507C4.0375 84.66 3.99109 87.0732 4.0143 89.4864C4.02203 90.4533 4.13805 91.4163 4.5828 92.298C5.65792 94.4212 7.55678 94.9858 9.73796 94.9858C19.4759 94.9858 29.2139 94.9858 38.9557 94.9858C41.3999 94.9858 43.8401 95.0167 46.2843 94.9781C49.6296 94.9239 51.5362 92.967 51.5439 89.6489C51.5516 87.2705 51.5439 84.8882 51.5439 82.5098C51.5439 81.6615 51.1198 81.2361 50.2715 81.2336C42.7844 81.2336 35.2933 81.2336 27.8062 81.2336H27.8023ZM27.7017 13.8993C35.2856 13.8993 42.8733 13.8877 50.4572 13.9148C51.3002 13.9148 51.598 13.675 51.5594 12.8203C51.4975 11.4706 51.5516 10.1209 51.5362 8.76737C51.5168 7.4138 50.9754 6.28454 50.0047 5.34478C48.8522 4.22325 47.4058 4.00668 45.9014 4.00668C34.779 3.99894 23.6604 4.00281 12.5379 4.00281C11.5401 4.00281 10.5462 3.99507 9.54846 4.00281C5.95957 4.04535 4.0375 5.98289 4.0027 9.59111C3.99496 10.6198 4.06457 11.6563 3.98336 12.6772C3.90214 13.6712 4.26181 13.9225 5.23251 13.9187C12.7197 13.88 20.2107 13.8993 27.6979 13.8993H27.7017Z" fill="#FE8300"/>
<path d="M53.6442 59.704C54.727 59.7234 55.6706 60.6979 55.6474 61.7692C55.6281 62.852 54.5646 63.8227 53.4624 63.7686C52.484 63.7222 51.5635 62.767 51.5674 61.8001C51.5674 60.6554 52.5342 59.6808 53.6442 59.704Z" fill="#FE8300"/>
<path d="M27.7741 93.7714C24.657 93.7636 22.1587 91.246 22.1626 88.1057C22.1626 84.9693 24.6648 82.4555 27.7857 82.4517C30.9105 82.4517 33.5364 85.0737 33.49 88.1637C33.4475 91.246 30.868 93.7752 27.7741 93.7675V93.7714ZM29.3404 88.0748C29.321 87.2085 28.6752 86.6013 27.7857 86.6052C26.9272 86.6052 26.2426 87.2742 26.2349 88.1096C26.231 88.9797 26.962 89.6604 27.8669 89.6256C28.7525 89.5908 29.3597 88.9527 29.3404 88.0786V88.0748Z" fill="#FE8300"/>
<path d="M27.8056 6.94971C29.4762 6.94971 31.1469 6.93424 32.8138 6.95357C34.1403 6.96904 35.0529 7.82372 35.0336 8.98006C35.0143 10.1093 34.1286 10.9408 32.8524 10.9447C29.4801 10.9601 26.1078 10.9601 22.7393 10.9447C21.4399 10.9369 20.6123 10.1403 20.6007 8.96846C20.5891 7.76571 21.4399 6.96518 22.7974 6.95357C24.468 6.9381 26.1349 6.94971 27.8056 6.94971Z" fill="#FE8300"/>
</g>
<defs>
<clipPath id="clip0_512_767">
<rect width="55.6935" height="99" fill="white"/>
</clipPath>
</defs>
</svg>
