<svg width="87" height="96" viewBox="0 0 87 96" fill="none" xmlns="http://www.w3.org/2000/svg">
<g clip-path="url(#clip0_512_772)">
<path d="M4.88456 47.6022C4.88456 34.9182 4.88456 22.2379 4.88456 9.55386C4.88456 8.86984 4.91802 8.19698 5.1485 7.5427C5.72471 5.91073 7.14106 4.85125 8.87341 4.83638C11.3492 4.81408 13.8214 4.82151 16.2972 4.83267C17.6466 4.83638 18.4087 5.39029 18.892 6.66166C19.4744 8.19574 20.5834 8.96278 22.2191 8.96278C27.1039 8.96278 31.9924 8.93676 36.8771 8.98508C37.7879 8.99252 38.26 8.69512 38.4533 7.83638C38.5351 7.47579 38.6838 7.13006 38.8102 6.78434C39.3269 5.3494 40.0518 4.83638 41.5909 4.83267C43.9403 4.82523 46.2935 4.82151 48.6429 4.83267C51.0593 4.84382 52.7879 6.53527 52.84 8.97021C52.8734 10.5464 52.8697 12.1263 52.84 13.7026C52.8251 14.3829 52.9924 14.7249 53.7656 14.7174C54.5054 14.71 54.6392 14.3643 54.6281 13.736C54.602 12.2527 54.6281 10.7658 54.6206 9.28248C54.6095 5.43861 52.1559 2.96278 48.2898 2.93676C44.7024 2.91073 41.115 2.92932 37.5277 2.92932C28.2489 2.92932 18.9701 2.92932 9.69497 2.92932C7.87712 2.92932 6.20798 3.34568 4.86969 4.69512C3.74701 5.82523 3.14478 7.17467 3.13363 8.76575C3.11504 11.2416 3.12619 13.7137 3.12248 16.1895C3.12248 16.6245 3.13735 17.0557 2.94404 17.4646C2.66523 18.0594 2.19683 18.3457 1.53883 18.3271C0.918016 18.3085 0.486789 18.0111 0.241436 17.446C0.167086 17.2788 0.0964544 17.0892 0.0964544 16.9144C0.118759 13.7955 -0.197226 10.6542 0.237718 7.55757C0.854819 3.10404 4.50909 0.0111052 8.96634 0.00738775C22.234 -0.00376467 35.5017 -0.00376467 48.7693 0.00738775C53.6504 0.0111052 57.5426 3.85125 57.6578 8.74716C57.695 10.3234 57.6652 11.9033 57.6689 13.4795C57.6689 14.6877 57.6727 14.6914 58.9217 14.6951C61.55 14.6951 64.1782 14.6951 66.8065 14.6951C67.0556 14.6951 67.3009 14.6951 67.55 14.6951C68.9478 14.71 69.6801 15.2342 69.6727 16.223C69.6689 17.2118 68.9366 17.7434 67.5388 17.7434C51.4868 17.7434 35.4347 17.7434 19.3864 17.7434C18.9849 17.7434 18.5834 17.7434 18.182 17.7434C16.5091 17.762 15.7396 18.513 15.7359 20.1821C15.7284 25.9033 15.7321 31.6282 15.7321 37.3494C15.7321 38.8029 15.7656 40.2565 15.7173 41.71C15.6912 42.4907 15.9849 42.7174 16.7396 42.7137C21.2563 42.6877 25.7693 42.6728 30.286 42.7137C32.7693 42.736 34.8102 43.6691 36.0518 45.9442C38.1225 49.7397 36.0816 55.3643 30.0518 55.3977C25.721 55.42 21.3939 55.4014 17.063 55.4052C16.1683 55.4052 15.7247 55.8488 15.7321 56.736C15.747 58.4646 16.4905 59.2341 18.2191 59.2341C39.2823 59.2379 60.3418 59.2379 81.405 59.2341C83.1894 59.2341 83.9366 58.4795 83.9366 56.6877C83.9403 44.5613 83.9403 32.4349 83.9366 20.3122C83.9366 18.4721 83.2005 17.7546 81.3344 17.7509C79.3864 17.7472 77.4385 17.7509 75.4905 17.7472C75.1522 17.7472 74.8065 17.7397 74.4794 17.6691C73.7247 17.5018 73.2712 17.0037 73.2675 16.2342C73.2675 15.4163 73.7507 14.9256 74.5426 14.7546C74.7805 14.7026 75.0333 14.7026 75.2823 14.7026C77.4162 14.7026 79.55 14.6802 81.6838 14.7026C84.721 14.7397 86.9812 16.9479 86.9849 19.9925C87.0072 32.3345 87.011 44.6765 86.9849 57.0185C86.9775 60.1263 84.6838 62.2825 81.4719 62.2899C73.9887 62.3048 66.5017 62.2936 59.0184 62.2973C58.1262 62.2973 57.6801 62.7348 57.6801 63.6096C57.6801 71.1263 57.695 78.6431 57.6727 86.1598C57.6578 90.6208 54.695 94.1821 50.3344 95.0483C49.8251 95.1486 49.2898 95.1672 48.7693 95.1672C35.5017 95.1747 22.234 95.1821 8.96634 95.1672C4.12619 95.1635 0.237718 91.3568 0.0815845 86.513C0.0592797 85.7695 0.0704321 85.0297 0.0704321 84.2862C0.0704321 64.3643 0.0704321 44.446 0.0704321 24.5241C0.0704321 24.0334 0.0332574 23.539 0.181956 23.052C0.405005 22.3271 0.925451 21.9776 1.63549 21.9925C2.30463 22.0074 2.79534 22.3568 3.00352 23.0408C3.15222 23.5278 3.11876 24.0223 3.11876 24.513C3.11876 44.9591 3.12619 65.4052 3.11132 85.8512C3.11132 87.8252 3.70612 89.4795 5.20426 90.7955C6.41616 91.8587 7.87341 92.2304 9.41244 92.2342C22.3715 92.2527 35.3307 92.2676 48.286 92.2342C52.2191 92.223 54.6169 89.7249 54.6206 85.7992C54.6243 78.3457 54.6243 70.8884 54.6169 63.4349C54.6169 62.9516 54.8102 62.3382 53.9478 62.2899C53.1857 62.2453 52.8251 62.4275 52.8362 63.2974C52.8734 67.0706 52.8548 70.8438 52.8511 74.6171C52.8511 76.1858 52.3641 76.9256 51.3344 76.933C50.3046 76.9405 49.7991 76.1933 49.7991 74.6319C49.7991 70.9516 49.7991 67.2713 49.7991 63.5873C49.7991 62.3011 49.7991 62.2973 48.5314 62.2973C38.5723 62.2973 28.6132 62.2973 18.6541 62.2973C14.7507 62.2973 12.6838 60.2416 12.6838 56.3531C12.6838 44.4423 12.6838 32.5353 12.6838 20.6245C12.6838 16.7732 14.747 14.6988 18.5723 14.6988C28.5314 14.6988 38.4905 14.6988 48.4496 14.6988C49.3468 14.6988 49.7966 14.2639 49.7991 13.394C49.7991 11.9702 49.7842 10.5464 49.7991 9.12635C49.8065 8.2862 49.379 7.80293 48.5909 7.78434C46.4571 7.73973 44.3232 7.76947 42.1894 7.75832C41.7173 7.75832 41.55 8.052 41.4236 8.42374C41.2043 9.06687 41.011 9.72114 40.7433 10.3457C40.2898 11.4126 39.4682 12.0037 38.2898 12.0074C32.011 12.0148 25.7321 12.0148 19.4533 12.0074C18.2377 12.0074 17.4199 11.3829 16.9663 10.2639C16.9552 10.2342 16.9478 10.2044 16.9366 10.1747C16.5834 9.42375 16.6318 8.36798 15.9626 7.9256C15.234 7.44605 14.2191 7.78434 13.3307 7.76203C12.1857 7.73229 11.0407 7.7546 9.89943 7.7546C8.22285 7.7546 7.94776 8.02969 7.94776 9.67653C7.94776 20.6877 7.94776 31.6988 7.94776 42.7137C7.94776 56.9442 7.94776 71.171 7.94776 85.4014C7.94776 87.1821 8.19311 87.4237 9.98493 87.4237C22.5723 87.4237 35.1597 87.4237 47.747 87.4237C49.5537 87.4237 49.7953 87.1858 49.7991 85.4126C49.7991 84.3308 49.7768 83.2453 49.8139 82.1635C49.8511 81.0631 50.4608 80.4163 51.3604 80.446C52.2191 80.4758 52.8102 81.1078 52.8362 82.1449C52.8734 83.565 52.8994 84.9925 52.8325 86.4126C52.7247 88.6988 50.9961 90.3345 48.7136 90.3345C35.4756 90.342 22.2414 90.342 9.00352 90.3345C6.73958 90.3345 5.03697 88.6691 4.90315 86.3866C4.88084 86.0148 4.89199 85.6431 4.89199 85.275C4.89199 72.7174 4.89199 60.1598 4.89199 47.5985L4.88456 47.6022ZM23.7359 45.7583C21.4162 45.7583 19.0965 45.7881 16.7768 45.7434C15.9552 45.7286 15.695 46.0148 15.721 46.8215C15.7693 48.3345 15.7693 49.855 15.721 51.368C15.6987 52.1412 15.9812 52.3791 16.7396 52.3754C21.2563 52.3494 25.7693 52.3754 30.286 52.3568C32.4385 52.3494 33.8362 51 33.8176 49.0185C33.7991 47.0743 32.4273 45.7843 30.3195 45.7658C28.1225 45.7472 25.9292 45.762 23.7321 45.762L23.7359 45.7583Z" fill="#FE8300"/>
<path d="M28.8474 78.4388C26.5277 78.4388 24.2117 78.4648 21.892 78.4351C19.0482 78.3979 16.892 76.7287 16.3902 74.2343C15.6801 70.6916 17.9924 67.6841 21.6467 67.6209C26.4682 67.5354 31.2898 67.5429 36.1114 67.6209C39.2712 67.673 41.5575 70.0856 41.498 73.0745C41.4385 76.1117 39.182 78.3459 35.985 78.4239C33.6058 78.4834 31.2266 78.4351 28.8437 78.4388H28.8474ZM28.959 70.647C26.6095 70.647 24.2601 70.6395 21.9106 70.647C20.2824 70.6544 19.2861 71.5503 19.2749 72.989C19.2638 74.4351 20.2564 75.3719 21.866 75.3756C26.5352 75.3867 31.2043 75.3867 35.8735 75.3756C37.472 75.3719 38.4794 74.4165 38.4682 72.9853C38.4571 71.5615 37.4422 70.6544 35.8251 70.647C33.5389 70.6358 31.2489 70.647 28.9627 70.647H28.959Z" fill="#FE8300"/>
<path d="M29.4057 21.9331C31.1975 21.9331 32.9893 21.9183 34.7774 21.9368C36.7514 21.9554 37.796 23.0075 37.8109 24.9963C37.8295 27.1896 37.8295 29.3829 37.8109 31.5762C37.796 33.5577 36.7477 34.6209 34.77 34.632C31.1863 34.6506 27.6064 34.6543 24.0228 34.632C22.1046 34.6209 21.0525 33.5465 21.0339 31.6171C21.0153 29.3941 21.0116 27.171 21.0339 24.9443C21.0525 23.0149 22.1046 21.974 24.0265 21.9368C24.0897 21.9368 24.1492 21.9368 24.2124 21.9368C25.941 21.9368 27.6696 21.9368 29.4019 21.9368L29.4057 21.9331ZM29.3648 31.5837C30.848 31.5837 32.335 31.5651 33.8183 31.5911C34.4614 31.6023 34.7923 31.4313 34.7737 30.7101C34.7365 29.0707 34.7477 27.4313 34.77 25.7919C34.7774 25.1859 34.5283 24.9777 33.941 24.9777C30.941 24.9926 27.941 24.9963 24.941 24.9777C24.2941 24.974 24.0674 25.2231 24.0785 25.8551C24.1046 27.461 24.1083 29.0707 24.0785 30.6803C24.0637 31.3718 24.335 31.606 25.0079 31.5911C26.4614 31.5577 27.915 31.58 29.3685 31.58L29.3648 31.5837Z" fill="#FE8300"/>
<path d="M70.8736 54.249C70.8513 55.078 70.5465 55.6133 69.8253 55.8178C69.119 56.0185 68.5502 55.7806 68.1524 55.1598C68.0855 55.0557 68.0074 54.9479 67.9851 54.8289C67.7361 53.4089 66.8401 53.0037 65.5242 53.2304C65.3457 53.2602 65.1487 53.2602 64.9703 53.2304C63.6134 53.0148 62.6989 53.368 62.3234 54.8735C62.0967 55.7769 61.1524 56.0929 60.3866 55.7769C59.6134 55.4572 59.2639 54.6654 59.5985 53.7732C60.8996 50.3011 62.2193 46.8364 63.5502 43.3754C63.8439 42.6096 64.4349 42.1709 65.2602 42.1895C66.0483 42.2081 66.5836 42.6728 66.8587 43.4014C68.1487 46.8104 69.4312 50.223 70.7138 53.6356C70.7993 53.8624 70.8364 54.1115 70.8736 54.2527V54.249ZM65.3085 47.8401C65.2342 47.8252 65.1599 47.8141 65.0855 47.7992C64.8773 48.3308 64.6952 48.8735 64.4535 49.3903C64.0929 50.1598 64.3829 50.3382 65.1375 50.3159C66.2751 50.2788 66.2788 50.3159 65.881 49.2862C65.6952 48.8029 65.4981 48.3234 65.3085 47.8438V47.8401Z" fill="#FE8300"/>
<path d="M51.643 48.9777C51.643 47.4015 51.6393 45.8253 51.643 44.249C51.6504 42.6617 52.156 42.145 53.7731 42.1635C54.9106 42.1747 56.0593 42.0334 57.1895 42.316C59.6132 42.9182 60.9069 44.8067 60.6467 47.3754C60.4311 49.5055 58.55 51.1264 56.2192 51.1858C56.0965 51.1858 55.9701 51.2081 55.8474 51.1896C54.8698 51.0334 54.5909 51.5055 54.6802 52.4089C54.7396 52.9888 54.7099 53.5836 54.6802 54.171C54.6244 55.249 54.0185 55.8922 53.1151 55.8661C52.2341 55.8438 51.6727 55.2379 51.6541 54.1784C51.6244 52.4461 51.6467 50.7174 51.6467 48.9851H51.643V48.9777ZM54.7025 46.8141C54.8326 47.3568 54.2898 48.3383 55.6318 48.2751C56.8995 48.2156 57.7545 47.6171 57.7322 46.6654C57.7136 45.7844 56.9181 45.2082 55.7285 45.2119C54.7025 45.2156 54.6987 45.223 54.7025 46.8178V46.8141Z" fill="#FE8300"/>
<path d="M73 51.9516C73.3829 50.0669 72.6989 48.5167 71.5613 47.0669C70.9554 46.2937 70.4535 45.4275 69.9442 44.5799C69.4423 43.7472 69.5985 42.9293 70.2974 42.4498C71 41.9665 71.8067 42.1115 72.3977 42.9182C72.9814 43.7137 73.5241 44.5464 74.026 45.3977C74.4461 46.1078 74.7212 46 75.0929 45.3643C75.5613 44.565 76.0743 43.7918 76.6059 43.0297C77.2119 42.1635 78.0074 41.9702 78.7509 42.4572C79.4721 42.9331 79.6357 43.8029 79.0966 44.6654C78.2602 46 77.3977 47.3197 76.5204 48.6282C76.197 49.1115 76.0409 49.6059 76.052 50.1896C76.0743 51.487 76.0706 52.7844 76.052 54.0855C76.0371 55.1747 75.4572 55.8661 74.591 55.8884C73.684 55.9108 73.0594 55.2007 73.0074 54.0855C73.0074 54.0223 73.0074 53.9628 73.0074 53.8996C73.0074 53.249 73.0074 52.6022 73.0074 51.9516H73Z" fill="#FE8300"/>
<path d="M72.6879 27.9331C72.6879 28.3346 72.7288 28.7398 72.6804 29.1338C72.5801 29.9331 72.1117 30.4498 71.305 30.5167C70.4834 30.5873 69.937 30.1264 69.7659 29.342C69.5652 28.4052 69.5726 27.4386 69.7659 26.4981C69.9221 25.7398 70.4723 25.3234 71.2306 25.3383C72.0336 25.3569 72.5578 25.829 72.673 26.6394C72.7325 27.0632 72.6842 27.5018 72.6842 27.9331H72.6916H72.6879Z" fill="#FE8300"/>
<path d="M74.6766 27.9517C74.6766 27.5205 74.6319 27.0855 74.6877 26.6617C74.7918 25.8513 75.3085 25.3717 76.1078 25.342C76.8624 25.316 77.4126 25.7175 77.5873 26.4796C77.7955 27.3866 77.7658 28.3197 77.6208 29.2305C77.4907 30.0483 76.8067 30.5651 76.0669 30.5242C75.3197 30.4833 74.7509 29.9033 74.6728 29.0595C74.6394 28.6952 74.6654 28.3197 74.6654 27.9517C74.6691 27.9517 74.6728 27.9517 74.6766 27.9517Z" fill="#FE8300"/>
<path d="M56.9217 27.8921C56.9217 28.3233 56.97 28.7583 56.9105 29.1821C56.8027 29.9813 56.3083 30.4869 55.5016 30.5129C54.7544 30.5352 54.1894 30.1412 54.0184 29.3791C53.8065 28.4423 53.8139 27.4795 53.9998 26.5427C54.1559 25.7509 54.7172 25.3271 55.5239 25.3419C56.3046 25.3568 56.8473 25.9367 56.9254 26.788C56.9589 27.1523 56.9291 27.5241 56.9291 27.8958C56.9254 27.8958 56.9217 27.8958 56.918 27.8958L56.9217 27.8921Z" fill="#FE8300"/>
<path d="M49.7026 27.9442C49.7026 28.3457 49.7323 28.7509 49.6952 29.1486C49.6245 29.9851 49.1078 30.4646 48.3123 30.5055C47.513 30.5427 46.9591 30.1077 46.803 29.2899C46.6283 28.368 46.6283 27.4423 46.8104 26.5241C46.9665 25.7472 47.5056 25.3308 48.2565 25.3382C49.0669 25.3457 49.5799 25.8327 49.684 26.6505C49.7398 27.078 49.6952 27.5167 49.6952 27.9479C49.6952 27.9479 49.6989 27.9479 49.7026 27.9479V27.9442Z" fill="#FE8300"/>
<path d="M59.2448 27.9294C59.2448 27.5279 59.2188 27.1227 59.2485 26.725C59.3117 25.9034 59.9251 25.3198 60.6872 25.3123C61.453 25.3049 62.0924 25.8848 62.137 26.7027C62.1816 27.5019 62.1779 28.3086 62.137 29.1116C62.0961 29.9294 61.4604 30.5205 60.7058 30.5279C59.9586 30.5317 59.3154 29.9369 59.2485 29.1302C59.2151 28.7324 59.2411 28.3272 59.2411 27.9257L59.2448 27.9294Z" fill="#FE8300"/>
</g>
<defs>
<clipPath id="clip0_512_772">
<rect width="87" height="95.171" fill="white"/>
</clipPath>
</defs>
</svg>
