<svg width="118" height="74" viewBox="0 0 118 74" fill="none" xmlns="http://www.w3.org/2000/svg">
<path d="M5.89262 15.1262C4.36693 15.1262 3.10553 14.7719 2.10842 14.0631C1.12333 13.3423 0.588732 12.2911 0.504639 10.9096H4.75736C4.81743 11.6424 5.14179 12.0088 5.73044 12.0088C5.94668 12.0088 6.12688 11.9607 6.27104 11.8646C6.42721 11.7565 6.5053 11.5943 6.5053 11.3781C6.5053 11.0778 6.34312 10.8375 6.01876 10.6573C5.6944 10.4651 5.18984 10.2488 4.50508 10.0086C3.68817 9.72024 3.00942 9.43793 2.46882 9.16162C1.94023 8.88532 1.48373 8.48287 1.0993 7.95428C0.714872 7.4257 0.528665 6.74694 0.540679 5.91802C0.540679 5.0891 0.750912 4.38632 1.17138 3.80968C1.60386 3.22103 2.18651 2.77654 2.91932 2.4762C3.66415 2.17587 4.49907 2.0257 5.4241 2.0257C6.98583 2.0257 8.22321 2.3861 9.13622 3.1069C10.0612 3.8277 10.5478 4.84283 10.5958 6.15228H6.28906C6.27705 5.79188 6.18695 5.5336 6.01876 5.37742C5.85057 5.22125 5.64635 5.14316 5.40608 5.14316C5.23789 5.14316 5.09974 5.20323 4.99162 5.32336C4.8835 5.43148 4.82944 5.58766 4.82944 5.79188C4.82944 6.0802 4.98561 6.32047 5.29796 6.51268C5.62232 6.69288 6.13289 6.91513 6.82966 7.17942C7.63455 7.47976 8.29529 7.76808 8.81186 8.04438C9.34045 8.32069 9.79695 8.70512 10.1814 9.19766C10.5658 9.69021 10.758 10.3089 10.758 11.0537C10.758 11.8346 10.5658 12.5374 10.1814 13.1621C9.79695 13.7747 9.23833 14.2553 8.50552 14.6037C7.77271 14.9521 6.90174 15.1262 5.89262 15.1262Z" fill="#212121"/>
<path d="M18.6688 15.0001L16.164 10.9456V15.0001H12.1636V1.6653H16.164V8.63904L18.7048 4.83682H23.354L19.5518 9.9545L23.4441 15.0001H18.6688Z" fill="#212121"/>
<path d="M34.1801 9.82836C34.1801 10.1047 34.1621 10.369 34.126 10.6212H27.6929C27.7529 11.4982 28.1194 11.9367 28.7921 11.9367C29.2246 11.9367 29.5369 11.7385 29.7291 11.342H33.9638C33.8197 12.0628 33.5133 12.7116 33.0448 13.2882C32.5883 13.8528 32.0057 14.3033 31.2969 14.6397C30.6001 14.9641 29.8313 15.1262 28.9903 15.1262C27.9812 15.1262 27.0802 14.916 26.2873 14.4955C25.5065 14.0751 24.8938 13.4744 24.4493 12.6935C24.0168 11.9007 23.8006 10.9756 23.8006 9.91846C23.8006 8.86129 24.0168 7.94227 24.4493 7.1614C24.8938 6.36852 25.5065 5.76185 26.2873 5.34138C27.0802 4.92092 27.9812 4.71068 28.9903 4.71068C29.9994 4.71068 30.8944 4.92092 31.6753 5.34138C32.4682 5.74984 33.0809 6.33849 33.5133 7.10734C33.9578 7.8762 34.1801 8.7832 34.1801 9.82836ZM30.1256 8.8733C30.1256 8.53693 30.0175 8.28465 29.8012 8.11646C29.585 7.93626 29.3147 7.84616 28.9903 7.84616C28.2815 7.84616 27.8671 8.18854 27.7469 8.8733H30.1256Z" fill="#212121"/>
<path d="M42.5632 4.76474C43.7285 4.76474 44.6355 5.15518 45.2842 5.93604C45.9449 6.71691 46.2753 7.77408 46.2753 9.10756V15.0001H42.2929V9.61212C42.2929 9.13159 42.1607 8.75317 41.8964 8.47686C41.6442 8.18854 41.3018 8.04438 40.8693 8.04438C40.4248 8.04438 40.0764 8.18854 39.8241 8.47686C39.5719 8.75317 39.4457 9.13159 39.4457 9.61212V15.0001H35.4453V4.83682H39.4457V6.38654C39.7581 5.90601 40.1725 5.51558 40.6891 5.21524C41.2177 4.91491 41.8424 4.76474 42.5632 4.76474Z" fill="#212121"/>
<path d="M50.0282 4.02592C49.3315 4.02592 48.7729 3.83972 48.3524 3.4673C47.9319 3.09489 47.7217 2.62637 47.7217 2.06174C47.7217 1.4851 47.9319 1.01058 48.3524 0.638164C48.7729 0.253737 49.3315 0.0615234 50.0282 0.0615234C50.713 0.0615234 51.2656 0.253737 51.6861 0.638164C52.1066 1.01058 52.3168 1.4851 52.3168 2.06174C52.3168 2.62637 52.1066 3.09489 51.6861 3.4673C51.2656 3.83972 50.713 4.02592 50.0282 4.02592ZM52.0104 4.83682V15.0001H48.01V4.83682H52.0104Z" fill="#212121"/>
<path d="M57.8177 6.7109C58.2261 6.12225 58.7247 5.65373 59.3133 5.30534C59.902 4.94494 60.5147 4.76474 61.1514 4.76474V9.03548H60.0161C59.2593 9.03548 58.7007 9.16763 58.3403 9.43192C57.9919 9.69622 57.8177 10.1647 57.8177 10.8375V15.0001H53.8172V4.83682H57.8177V6.7109Z" fill="#212121"/>
<path d="M61.6883 9.91846C61.6883 8.84928 61.8685 7.92425 62.2289 7.14338C62.6013 6.3505 63.1059 5.74984 63.7426 5.34138C64.3793 4.92092 65.0941 4.71068 65.887 4.71068C66.5477 4.71068 67.1183 4.84884 67.5989 5.12514C68.0794 5.38944 68.4458 5.75584 68.6981 6.22436V4.83682H72.6805V15.0001H68.6981V13.6126C68.4458 14.0811 68.0794 14.4535 67.5989 14.7298C67.1183 14.9941 66.5477 15.1262 65.887 15.1262C65.0941 15.1262 64.3793 14.922 63.7426 14.5136C63.1059 14.0931 62.6013 13.4924 62.2289 12.7116C61.8685 11.9187 61.6883 10.9877 61.6883 9.91846ZM68.6981 9.91846C68.6981 9.37786 68.5599 8.9574 68.2836 8.65706C68.0073 8.35673 67.6529 8.20656 67.2205 8.20656C66.788 8.20656 66.4336 8.35673 66.1573 8.65706C65.881 8.9574 65.7428 9.37786 65.7428 9.91846C65.7428 10.4591 65.881 10.8795 66.1573 11.1799C66.4336 11.4802 66.788 11.6304 67.2205 11.6304C67.6529 11.6304 68.0073 11.4802 68.2836 11.1799C68.5599 10.8795 68.6981 10.4591 68.6981 9.91846Z" fill="#212121"/>
<path d="M76.4591 4.02592C75.7623 4.02592 75.2037 3.83972 74.7832 3.4673C74.3628 3.09489 74.1525 2.62637 74.1525 2.06174C74.1525 1.4851 74.3628 1.01058 74.7832 0.638164C75.2037 0.253737 75.7623 0.0615234 76.4591 0.0615234C77.1438 0.0615234 77.6965 0.253737 78.1169 0.638164C78.5374 1.01058 78.7476 1.4851 78.7476 2.06174C78.7476 2.62637 78.5374 3.09489 78.1169 3.4673C77.6965 3.83972 77.1438 4.02592 76.4591 4.02592ZM78.4773 15.7029C78.4773 18.478 77.0838 19.8655 74.2967 19.8655H72.9632V16.4597H73.7381C74.0024 16.4597 74.1886 16.4057 74.2967 16.2975C74.4168 16.1894 74.4769 16.0152 74.4769 15.775V4.83682H78.4773V15.7029Z" fill="#212121"/>
<path d="M2.91932 24.0259C2.22255 24.0259 1.66393 23.8397 1.24346 23.4673C0.822992 23.0949 0.612759 22.6264 0.612759 22.0617C0.612759 21.4851 0.822992 21.0106 1.24346 20.6382C1.66393 20.2537 2.22255 20.0615 2.91932 20.0615C3.60408 20.0615 4.15669 20.2537 4.57716 20.6382C4.99763 21.0106 5.20786 21.4851 5.20786 22.0617C5.20786 22.6264 4.99763 23.0949 4.57716 23.4673C4.15669 23.8397 3.60408 24.0259 2.91932 24.0259ZM4.90152 24.8368V35.0001H0.901079V24.8368H4.90152Z" fill="#212121"/>
<path d="M16.2755 35.0001L13.7707 30.9456V35.0001H9.7703V21.6653H13.7707V28.639L16.3116 24.8368H20.9607L17.1585 29.9545L21.0508 35.0001H16.2755Z" fill="#212121"/>
<path d="M32.7058 24.8368V35.0001H28.7054V33.4504C28.393 33.9309 27.9726 34.3214 27.444 34.6217C26.9274 34.922 26.3087 35.0722 25.5879 35.0722C24.4226 35.0722 23.5096 34.6818 22.8489 33.9009C22.2002 33.12 21.8758 32.0628 21.8758 30.7294V24.8368H25.8582V30.2248C25.8582 30.7053 25.9844 31.0898 26.2366 31.3781C26.5009 31.6544 26.8493 31.7925 27.2818 31.7925C27.7263 31.7925 28.0747 31.6544 28.327 31.3781C28.5792 31.0898 28.7054 30.7053 28.7054 30.2248V24.8368H32.7058Z" fill="#212121"/>
<path d="M38.513 26.2244C38.7653 25.7558 39.1257 25.3894 39.5942 25.1251C40.0748 24.8488 40.6454 24.7107 41.3061 24.7107C42.099 24.7107 42.8138 24.9209 43.4505 25.3414C44.0872 25.7498 44.5858 26.3505 44.9462 27.1434C45.3186 27.9243 45.5048 28.8493 45.5048 29.9185C45.5048 30.9877 45.3186 31.9187 44.9462 32.7116C44.5858 33.4924 44.0872 34.0931 43.4505 34.5136C42.8138 34.922 42.099 35.1262 41.3061 35.1262C40.6454 35.1262 40.0748 34.9941 39.5942 34.7298C39.1257 34.4535 38.7653 34.0811 38.513 33.6126V39.8655H34.5126V24.8368H38.513V26.2244ZM41.4503 29.9185C41.4503 29.3779 41.3121 28.9574 41.0358 28.6571C40.7595 28.3567 40.4051 28.2066 39.9727 28.2066C39.5402 28.2066 39.1858 28.3567 38.9095 28.6571C38.6332 28.9574 38.495 29.3779 38.495 29.9185C38.495 30.4591 38.6332 30.8795 38.9095 31.1799C39.1858 31.4802 39.5402 31.6304 39.9727 31.6304C40.4051 31.6304 40.7595 31.4802 41.0358 31.1799C41.3121 30.8795 41.4503 30.4591 41.4503 29.9185Z" fill="#212121"/>
<path d="M48.7788 24.0259C48.082 24.0259 47.5234 23.8397 47.103 23.4673C46.6825 23.0949 46.4723 22.6264 46.4723 22.0617C46.4723 21.4851 46.6825 21.0106 47.103 20.6382C47.5234 20.2537 48.082 20.0615 48.7788 20.0615C49.4636 20.0615 50.0162 20.2537 50.4367 20.6382C50.8571 21.0106 51.0674 21.4851 51.0674 22.0617C51.0674 22.6264 50.8571 23.0949 50.4367 23.4673C50.0162 23.8397 49.4636 24.0259 48.7788 24.0259ZM50.761 24.8368V35.0001H46.7606V24.8368H50.761Z" fill="#212121"/>
<path d="M57.9558 21.395L57.4873 29.9365H54.0635L53.5949 21.395H57.9558ZM55.7754 35.1443C55.0786 35.1443 54.52 34.9581 54.0995 34.5856C53.679 34.2132 53.4688 33.7447 53.4688 33.1801C53.4688 32.6034 53.679 32.1289 54.0995 31.7565C54.52 31.3721 55.0786 31.1799 55.7754 31.1799C56.4601 31.1799 57.0127 31.3721 57.4332 31.7565C57.8537 32.1289 58.0639 32.6034 58.0639 33.1801C58.0639 33.7447 57.8537 34.2132 57.4332 34.5856C57.0127 34.9581 56.4601 35.1443 55.7754 35.1443Z" fill="#212121"/>
<path d="M90 10C103.31 16.671 123.977 38.1409 100.162 70.6542M100.162 70.6542L95.7528 54.2852M100.162 70.6542L114.926 65.5263" stroke="#FE8300" stroke-width="4.22366" stroke-linecap="round"/>
</svg>
