<svg width="214" height="95" viewBox="0 0 214 95" fill="none" xmlns="http://www.w3.org/2000/svg">
<path d="M5.89254 16.1261C4.36685 16.1261 3.10545 15.7717 2.10834 15.063C1.12325 14.3422 0.588653 13.291 0.50456 11.9095H4.75728C4.81735 12.6423 5.14171 13.0087 5.73036 13.0087C5.9466 13.0087 6.1268 12.9606 6.27096 12.8645C6.42713 12.7564 6.50522 12.5942 6.50522 12.378C6.50522 12.0776 6.34304 11.8374 6.01868 11.6572C5.69432 11.465 5.18976 11.2487 4.505 11.0085C3.68809 10.7201 3.00934 10.4378 2.46874 10.1615C1.94015 9.88521 1.48365 9.48277 1.09922 8.95418C0.714793 8.42559 0.528587 7.74684 0.5406 6.91792C0.5406 6.089 0.750833 5.38622 1.1713 4.80958C1.60378 4.22093 2.18643 3.77643 2.91924 3.4761C3.66407 3.17577 4.49899 3.0256 5.42402 3.0256C6.98575 3.0256 8.22313 3.386 9.13614 4.1068C10.0612 4.8276 10.5477 5.84273 10.5958 7.15218H6.28898C6.27697 6.79178 6.18687 6.53349 6.01868 6.37732C5.85049 6.22115 5.64627 6.14306 5.406 6.14306C5.23781 6.14306 5.09966 6.20313 4.99154 6.32326C4.88342 6.43138 4.82936 6.58755 4.82936 6.79178C4.82936 7.0801 4.98553 7.32037 5.29788 7.51258C5.62224 7.69278 6.13281 7.91503 6.82958 8.17932C7.63447 8.47965 8.29521 8.76797 8.81178 9.04428C9.34037 9.32059 9.79687 9.70501 10.1813 10.1976C10.5657 10.6901 10.7579 11.3088 10.7579 12.0536C10.7579 12.8345 10.5657 13.5373 10.1813 14.162C9.79687 14.7746 9.23825 15.2552 8.50544 15.6036C7.77263 15.9519 6.90166 16.1261 5.89254 16.1261ZM18.6687 16L16.1639 11.9455V16H12.1635V2.6652H16.1639V9.63894L18.7048 5.83672H23.3539L19.5517 10.9544L23.444 16H18.6687ZM34.18 10.8283C34.18 11.1046 34.162 11.3689 34.1259 11.6211H27.6928C27.7529 12.4981 28.1193 12.9366 28.792 12.9366C29.2245 12.9366 29.5368 12.7384 29.7291 12.3419H33.9638C33.8196 13.0627 33.5133 13.7115 33.0447 14.2881C32.5882 14.8527 32.0056 15.3032 31.2968 15.6396C30.6 15.964 29.8312 16.1261 28.9902 16.1261C27.9811 16.1261 27.0801 15.9159 26.2872 15.4954C25.5064 15.075 24.8937 14.4743 24.4492 13.6934C24.0167 12.9006 23.8005 11.9755 23.8005 10.9184C23.8005 9.86119 24.0167 8.94217 24.4492 8.1613C24.8937 7.36842 25.5064 6.76175 26.2872 6.34128C27.0801 5.92081 27.9811 5.71058 28.9902 5.71058C29.9994 5.71058 30.8944 5.92081 31.6752 6.34128C32.4681 6.74973 33.0808 7.33839 33.5133 8.10724C33.9578 8.87609 34.18 9.7831 34.18 10.8283ZM30.1255 9.8732C30.1255 9.53683 30.0174 9.28455 29.8011 9.11636C29.5849 8.93616 29.3146 8.84606 28.9902 8.84606C28.2815 8.84606 27.867 9.18844 27.7469 9.8732H30.1255ZM42.5631 5.76464C43.7284 5.76464 44.6354 6.15507 45.2841 6.93594C45.9449 7.71681 46.2752 8.77398 46.2752 10.1075V16H42.2928V10.612C42.2928 10.1315 42.1607 9.75307 41.8964 9.47676C41.6441 9.18844 41.3017 9.04428 40.8692 9.04428C40.4247 9.04428 40.0763 9.18844 39.8241 9.47676C39.5718 9.75307 39.4456 10.1315 39.4456 10.612V16H35.4452V5.83672H39.4456V7.38644C39.758 6.90591 40.1724 6.51547 40.689 6.21514C41.2176 5.91481 41.8423 5.76464 42.5631 5.76464ZM50.0282 5.02582C49.3314 5.02582 48.7728 4.83961 48.3523 4.4672C47.9318 4.09479 47.7216 3.62627 47.7216 3.06164C47.7216 2.485 47.9318 2.01047 48.3523 1.63806C48.7728 1.25363 49.3314 1.06142 50.0282 1.06142C50.7129 1.06142 51.2655 1.25363 51.686 1.63806C52.1065 2.01047 52.3167 2.485 52.3167 3.06164C52.3167 3.62627 52.1065 4.09479 51.686 4.4672C51.2655 4.83961 50.7129 5.02582 50.0282 5.02582ZM52.0104 5.83672V16H48.0099V5.83672H52.0104ZM57.8176 7.7108C58.226 7.12215 58.7246 6.65363 59.3133 6.30524C59.9019 5.94484 60.5146 5.76464 61.1513 5.76464V10.0354H60.016C59.2592 10.0354 58.7006 10.1675 58.3402 10.4318C57.9918 10.6961 57.8176 11.1646 57.8176 11.8374V16H53.8172V5.83672H57.8176V7.7108ZM61.6882 10.9184C61.6882 9.84917 61.8684 8.92415 62.2288 8.14328C62.6012 7.3504 63.1058 6.74973 63.7425 6.34128C64.3792 5.92081 65.094 5.71058 65.8869 5.71058C66.5476 5.71058 67.1183 5.84873 67.5988 6.12504C68.0793 6.38933 68.4457 6.75574 68.698 7.22426V5.83672H72.6804V16H68.698V14.6125C68.4457 15.081 68.0793 15.4534 67.5988 15.7297C67.1183 15.994 66.5476 16.1261 65.8869 16.1261C65.094 16.1261 64.3792 15.9219 63.7425 15.5135C63.1058 15.093 62.6012 14.4923 62.2288 13.7115C61.8684 12.9186 61.6882 11.9875 61.6882 10.9184ZM68.698 10.9184C68.698 10.3778 68.5599 9.95729 68.2836 9.65696C68.0072 9.35663 67.6529 9.20646 67.2204 9.20646C66.7879 9.20646 66.4335 9.35663 66.1572 9.65696C65.8809 9.95729 65.7427 10.3778 65.7427 10.9184C65.7427 11.459 65.8809 11.8794 66.1572 12.1798C66.4335 12.4801 66.7879 12.6303 67.2204 12.6303C67.6529 12.6303 68.0072 12.4801 68.2836 12.1798C68.5599 11.8794 68.698 11.459 68.698 10.9184ZM76.459 5.02582C75.7622 5.02582 75.2036 4.83961 74.7831 4.4672C74.3627 4.09479 74.1524 3.62627 74.1524 3.06164C74.1524 2.485 74.3627 2.01047 74.7831 1.63806C75.2036 1.25363 75.7622 1.06142 76.459 1.06142C77.1438 1.06142 77.6964 1.25363 78.1168 1.63806C78.5373 2.01047 78.7475 2.485 78.7475 3.06164C78.7475 3.62627 78.5373 4.09479 78.1168 4.4672C77.6964 4.83961 77.1438 5.02582 76.459 5.02582ZM78.4772 16.7028C78.4772 19.4779 77.0837 20.8654 74.2966 20.8654H72.9631V17.4596H73.738C74.0023 17.4596 74.1885 17.4056 74.2966 17.2974C74.4167 17.1893 74.4768 17.0151 74.4768 16.7749V5.83672H78.4772V16.7028ZM85.3291 5.02582C84.6323 5.02582 84.0737 4.83961 83.6532 4.4672C83.2327 4.09479 83.0225 3.62627 83.0225 3.06164C83.0225 2.485 83.2327 2.01047 83.6532 1.63806C84.0737 1.25363 84.6323 1.06142 85.3291 1.06142C86.0138 1.06142 86.5664 1.25363 86.9869 1.63806C87.4074 2.01047 87.6176 2.485 87.6176 3.06164C87.6176 3.62627 87.4074 4.09479 86.9869 4.4672C86.5664 4.83961 86.0138 5.02582 85.3291 5.02582ZM87.3113 5.83672V16H83.3108V5.83672H87.3113ZM96.1805 7.22426C96.4328 6.75574 96.7932 6.38933 97.2617 6.12504C97.7422 5.84873 98.3129 5.71058 98.9736 5.71058C99.7665 5.71058 100.481 5.92081 101.118 6.34128C101.755 6.74973 102.253 7.3504 102.614 8.14328C102.986 8.92415 103.172 9.84917 103.172 10.9184C103.172 11.9875 102.986 12.9186 102.614 13.7115C102.253 14.4923 101.755 15.093 101.118 15.5135C100.481 15.9219 99.7665 16.1261 98.9736 16.1261C98.3129 16.1261 97.7422 15.994 97.2617 15.7297C96.7932 15.4534 96.4328 15.081 96.1805 14.6125V20.8654H92.18V5.83672H96.1805V7.22426ZM99.1177 10.9184C99.1177 10.3778 98.9796 9.95729 98.7033 9.65696C98.427 9.35663 98.0726 9.20646 97.6401 9.20646C97.2076 9.20646 96.8532 9.35663 96.5769 9.65696C96.3006 9.95729 96.1625 10.3778 96.1625 10.9184C96.1625 11.459 96.3006 11.8794 96.5769 12.1798C96.8532 12.4801 97.2076 12.6303 97.6401 12.6303C98.0726 12.6303 98.427 12.4801 98.7033 12.1798C98.9796 11.8794 99.1177 11.459 99.1177 10.9184ZM109.257 16.1261C108.236 16.1261 107.317 15.9159 106.5 15.4954C105.683 15.075 105.041 14.4743 104.572 13.6934C104.116 12.9006 103.887 11.9755 103.887 10.9184C103.887 9.86119 104.116 8.94217 104.572 8.1613C105.041 7.36842 105.683 6.76175 106.5 6.34128C107.317 5.92081 108.236 5.71058 109.257 5.71058C110.279 5.71058 111.198 5.92081 112.014 6.34128C112.831 6.76175 113.468 7.36842 113.925 8.1613C114.393 8.94217 114.627 9.86119 114.627 10.9184C114.627 11.9755 114.393 12.9006 113.925 13.6934C113.468 14.4743 112.831 15.075 112.014 15.4954C111.198 15.9159 110.279 16.1261 109.257 16.1261ZM109.257 12.6663C109.63 12.6663 109.942 12.5221 110.194 12.2338C110.447 11.9335 110.573 11.495 110.573 10.9184C110.573 10.3417 110.447 9.90924 110.194 9.62092C109.942 9.32059 109.63 9.17042 109.257 9.17042C108.885 9.17042 108.573 9.32059 108.32 9.62092C108.068 9.90924 107.942 10.3417 107.942 10.9184C107.942 11.495 108.062 11.9335 108.302 12.2338C108.555 12.5221 108.873 12.6663 109.257 12.6663ZM120.407 16.1261C119.446 16.1261 118.593 15.97 117.848 15.6576C117.115 15.3453 116.533 14.9128 116.1 14.3602C115.668 13.8076 115.422 13.1829 115.362 12.4861H119.2C119.248 12.7864 119.374 13.0087 119.578 13.1528C119.794 13.297 120.065 13.3691 120.389 13.3691C120.593 13.3691 120.755 13.327 120.876 13.2429C120.996 13.1468 121.056 13.0327 121.056 12.9006C121.056 12.6723 120.93 12.5101 120.677 12.414C120.425 12.3179 119.999 12.2098 119.398 12.0897C118.665 11.9455 118.058 11.7893 117.578 11.6211C117.109 11.453 116.695 11.1646 116.335 10.7562C115.986 10.3477 115.812 9.7831 115.812 9.0623C115.812 8.43761 115.974 7.87298 116.299 7.36842C116.635 6.85185 117.127 6.4494 117.776 6.16108C118.425 5.86075 119.212 5.71058 120.137 5.71058C121.506 5.71058 122.576 6.04695 123.344 6.7197C124.125 7.39245 124.594 8.26942 124.75 9.35062H121.2C121.14 9.07431 121.014 8.86408 120.822 8.71992C120.629 8.56375 120.371 8.48566 120.047 8.48566C119.842 8.48566 119.686 8.52771 119.578 8.6118C119.47 8.68388 119.416 8.79801 119.416 8.95418C119.416 9.15841 119.542 9.31458 119.794 9.4227C120.047 9.51881 120.449 9.62092 121.002 9.72904C121.735 9.8732 122.353 10.0354 122.858 10.2156C123.362 10.3958 123.801 10.7081 124.173 11.1526C124.546 11.5851 124.732 12.1858 124.732 12.9546C124.732 13.5553 124.558 14.0959 124.209 14.5764C123.861 15.057 123.356 15.4354 122.696 15.7117C122.047 15.988 121.284 16.1261 120.407 16.1261ZM123.398 3.80046L120.425 5.15196L117.434 3.80046V1.20558L120.425 2.79134L123.398 1.20558V3.80046ZM125.779 10.9184C125.779 9.84917 125.959 8.92415 126.319 8.14328C126.692 7.3504 127.196 6.74973 127.833 6.34128C128.47 5.92081 129.185 5.71058 129.978 5.71058C130.638 5.71058 131.209 5.84873 131.689 6.12504C132.17 6.38933 132.536 6.75574 132.789 7.22426V5.83672H136.771V16H132.789V14.6125C132.536 15.081 132.17 15.4534 131.689 15.7297C131.209 15.994 130.638 16.1261 129.978 16.1261C129.185 16.1261 128.47 15.9219 127.833 15.5135C127.196 15.093 126.692 14.4923 126.319 13.7115C125.959 12.9186 125.779 11.9875 125.779 10.9184ZM132.789 10.9184C132.789 10.3778 132.651 9.95729 132.374 9.65696C132.098 9.35663 131.744 9.20646 131.311 9.20646C130.879 9.20646 130.524 9.35663 130.248 9.65696C129.972 9.95729 129.833 10.3778 129.833 10.9184C129.833 11.459 129.972 11.8794 130.248 12.1798C130.524 12.4801 130.879 12.6303 131.311 12.6303C131.744 12.6303 132.098 12.4801 132.374 12.1798C132.651 11.8794 132.789 11.459 132.789 10.9184ZM142.568 2.6652V16H138.567V2.6652H142.568ZM146.357 5.02582C145.66 5.02582 145.102 4.83961 144.681 4.4672C144.261 4.09479 144.05 3.62627 144.05 3.06164C144.05 2.485 144.261 2.01047 144.681 1.63806C145.102 1.25363 145.66 1.06142 146.357 1.06142C147.042 1.06142 147.594 1.25363 148.015 1.63806C148.435 2.01047 148.645 2.485 148.645 3.06164C148.645 3.62627 148.435 4.09479 148.015 4.4672C147.594 4.83961 147.042 5.02582 146.357 5.02582ZM148.375 16.7028C148.375 19.4779 146.982 20.8654 144.194 20.8654H142.861V17.4596H143.636C143.9 17.4596 144.086 17.4056 144.194 17.2974C144.315 17.1893 144.375 17.0151 144.375 16.7749V5.83672H148.375V16.7028ZM152.165 5.02582C151.468 5.02582 150.91 4.83961 150.489 4.4672C150.069 4.09479 149.858 3.62627 149.858 3.06164C149.858 2.485 150.069 2.01047 150.489 1.63806C150.91 1.25363 151.468 1.06142 152.165 1.06142C152.85 1.06142 153.402 1.25363 153.823 1.63806C154.243 2.01047 154.454 2.485 154.454 3.06164C154.454 3.62627 154.243 4.09479 153.823 4.4672C153.402 4.83961 152.85 5.02582 152.165 5.02582ZM154.147 5.83672V16H150.147V5.83672H154.147ZM163.539 16.1261C162.578 16.1261 161.725 15.97 160.98 15.6576C160.247 15.3453 159.665 14.9128 159.232 14.3602C158.8 13.8076 158.553 13.1829 158.493 12.4861H162.332C162.38 12.7864 162.506 13.0087 162.71 13.1528C162.926 13.297 163.197 13.3691 163.521 13.3691C163.725 13.3691 163.887 13.327 164.007 13.2429C164.128 13.1468 164.188 13.0327 164.188 12.9006C164.188 12.6723 164.062 12.5101 163.809 12.414C163.557 12.3179 163.131 12.2098 162.53 12.0897C161.797 11.9455 161.19 11.7893 160.71 11.6211C160.241 11.453 159.827 11.1646 159.466 10.7562C159.118 10.3477 158.944 9.7831 158.944 9.0623C158.944 8.43761 159.106 7.87298 159.43 7.36842C159.767 6.85185 160.259 6.4494 160.908 6.16108C161.557 5.86075 162.344 5.71058 163.269 5.71058C164.638 5.71058 165.707 6.04695 166.476 6.7197C167.257 7.39245 167.726 8.26942 167.882 9.35062H164.332C164.272 9.07431 164.146 8.86408 163.953 8.71992C163.761 8.56375 163.503 8.48566 163.179 8.48566C162.974 8.48566 162.818 8.52771 162.71 8.6118C162.602 8.68388 162.548 8.79801 162.548 8.95418C162.548 9.15841 162.674 9.31458 162.926 9.4227C163.179 9.51881 163.581 9.62092 164.134 9.72904C164.866 9.8732 165.485 10.0354 165.99 10.2156C166.494 10.3958 166.933 10.7081 167.305 11.1526C167.678 11.5851 167.864 12.1858 167.864 12.9546C167.864 13.5553 167.69 14.0959 167.341 14.5764C166.993 15.057 166.488 15.4354 165.828 15.7117C165.179 15.988 164.416 16.1261 163.539 16.1261ZM183.02 5.76464C184.318 5.76464 185.321 6.15507 186.03 6.93594C186.751 7.71681 187.111 8.77398 187.111 10.1075V16H183.129V10.612C183.129 10.1795 182.996 9.84317 182.732 9.6029C182.48 9.35062 182.137 9.22448 181.705 9.22448C181.26 9.22448 180.912 9.35062 180.66 9.6029C180.408 9.84317 180.281 10.1795 180.281 10.612V16H176.299V10.612C176.299 10.1795 176.167 9.84317 175.903 9.6029C175.65 9.35062 175.308 9.22448 174.875 9.22448C174.431 9.22448 174.082 9.35062 173.83 9.6029C173.578 9.84317 173.452 10.1795 173.452 10.612V16H169.451V5.83672H173.452V7.20624C173.74 6.77376 174.131 6.42537 174.623 6.16108C175.128 5.89679 175.716 5.76464 176.389 5.76464C177.122 5.76464 177.771 5.92682 178.335 6.25118C178.9 6.56353 179.35 7.00802 179.687 7.58466C180.059 7.05607 180.534 6.62359 181.11 6.28722C181.687 5.93883 182.324 5.76464 183.02 5.76464ZM193.367 16.1261C192.406 16.1261 191.553 15.97 190.808 15.6576C190.075 15.3453 189.493 14.9128 189.06 14.3602C188.628 13.8076 188.381 13.1829 188.321 12.4861H192.16C192.208 12.7864 192.334 13.0087 192.538 13.1528C192.754 13.297 193.025 13.3691 193.349 13.3691C193.553 13.3691 193.715 13.327 193.836 13.2429C193.956 13.1468 194.016 13.0327 194.016 12.9006C194.016 12.6723 193.89 12.5101 193.637 12.414C193.385 12.3179 192.959 12.2098 192.358 12.0897C191.625 11.9455 191.018 11.7893 190.538 11.6211C190.069 11.453 189.655 11.1646 189.294 10.7562C188.946 10.3477 188.772 9.7831 188.772 9.0623C188.772 8.43761 188.934 7.87298 189.258 7.36842C189.595 6.85185 190.087 6.4494 190.736 6.16108C191.385 5.86075 192.172 5.71058 193.097 5.71058C194.466 5.71058 195.535 6.04695 196.304 6.7197C197.085 7.39245 197.554 8.26942 197.71 9.35062H194.16C194.1 9.07431 193.974 8.86408 193.781 8.71992C193.589 8.56375 193.331 8.48566 193.007 8.48566C192.802 8.48566 192.646 8.52771 192.538 8.6118C192.43 8.68388 192.376 8.79801 192.376 8.95418C192.376 9.15841 192.502 9.31458 192.754 9.4227C193.007 9.51881 193.409 9.62092 193.962 9.72904C194.694 9.8732 195.313 10.0354 195.818 10.2156C196.322 10.3958 196.761 10.7081 197.133 11.1526C197.506 11.5851 197.692 12.1858 197.692 12.9546C197.692 13.5553 197.518 14.0959 197.169 14.5764C196.821 15.057 196.316 15.4354 195.656 15.7117C195.007 15.988 194.244 16.1261 193.367 16.1261ZM204.667 2.3949L204.199 10.9364H200.775L200.307 2.3949H204.667ZM202.487 16.1442C201.79 16.1442 201.232 15.958 200.811 15.5855C200.391 15.2131 200.18 14.7446 200.18 14.18C200.18 13.6033 200.391 13.1288 200.811 12.7564C201.232 12.372 201.79 12.1798 202.487 12.1798C203.172 12.1798 203.724 12.372 204.145 12.7564C204.565 13.1288 204.775 13.6033 204.775 14.18C204.775 14.7446 204.565 15.2131 204.145 15.5855C203.724 15.958 203.172 16.1442 202.487 16.1442Z" fill="#212121"/>
<path d="M156.83 35.1006C161.747 49.1539 161.648 78.9545 121.92 85.7312M121.92 85.7312L130.144 70.9073M121.92 85.7312L136.091 92.3227" stroke="#FE8300" stroke-width="4.22366" stroke-linecap="round"/>
</svg>
