<svg width="112" height="112" viewBox="0 0 112 112" fill="none" xmlns="http://www.w3.org/2000/svg">
<path d="M109.569 25.0097C105.64 22.4242 99.0744 22.364 94.5614 21.3631C93.8478 4.71963 75.805 -5.33506 61.1631 2.9728C54.6114 6.6935 50.2651 13.792 50.0149 21.3631C46.4703 22.1369 35.7947 22.8876 33.7745 26.094C31.6617 29.4532 36.1747 31.4178 38.6443 32.2194C42.4809 33.4705 46.7344 33.9292 50.7424 34.374C50.4459 34.9625 50.1261 35.4119 50.0427 36.1023C49.8898 37.3719 49.9084 40.8238 50.103 42.0749C50.3207 43.4649 51.2196 44.6048 52.2853 45.4527C52.8136 45.8743 53.6337 45.8883 53.7588 46.5277V68.4256C50.0057 68.8472 46.6418 70.8165 43.7875 73.1749L40.7804 76.5388V59.7424C40.7804 58.5979 37.8844 55.6881 36.7261 55.6881H29.66V41.2084C29.66 41.1204 29.0159 39.8786 28.8816 39.6701C28.2375 38.6322 26.7548 37.4368 25.5501 37.2097C24.1137 36.941 16.4267 36.9595 15.0598 37.2699C13.9432 37.5248 12.6226 38.5905 11.9925 39.5311C11.8488 39.7442 11.1214 41.1157 11.1214 41.2084V55.6881H4.05528C2.71156 55.6881 -0.0592691 58.6582 0.000966393 60.1965L0.0612019 99.7619C0.788661 102.176 2.96177 104.09 5.5658 103.872C4.88931 108.468 7.5443 111.939 12.377 111.267C13.8598 111.058 16.6816 108.728 16.6816 107.231V103.872H24.0952V107.231C24.0952 107.574 24.9755 108.959 25.2582 109.312C27.612 112.189 32.0648 112.036 34.2471 109.047C34.4788 108.728 35.2155 107.514 35.2155 107.236V103.876C35.5723 103.941 36.9485 103.775 37.0597 103.886C37.2404 104.076 36.8651 105.123 38.3524 105.721L64.7495 111.295L80.4848 111.258L105.89 105.85C106.52 105.725 107.373 105.104 107.498 104.446C106.886 96.7687 108.972 87.4878 105.923 80.3151C103.365 74.2962 97.36 69.3106 90.8221 68.4256V46.5277C90.9426 45.8883 91.7627 45.8743 92.291 45.4527C93.3057 44.6465 94.2509 43.3862 94.4733 42.0749C94.8162 40.0315 94.7374 36.2413 93.8339 34.3694C98.3516 33.7717 103.991 33.3871 108.124 31.3993C110.987 30.0232 112.905 27.206 109.565 25.0051L109.569 25.0097ZM14.8374 42.5985C14.8374 41.3057 16.4962 40.9258 17.4924 40.8516C19.0307 40.7312 22.7422 40.6617 24.1647 40.9165C24.906 41.0509 25.9578 41.8339 25.9578 42.5985V55.6881H14.8374V42.5985ZM3.71703 61.1325C3.71703 60.544 4.86614 59.3949 5.45459 59.3949H11.1306V65.0709C11.1306 65.6594 9.98152 66.8085 9.39307 66.8085H3.71703V61.1325ZM5.45459 100.17C4.86614 100.17 3.71703 99.0206 3.71703 98.4321V92.7561H9.39307C9.98152 92.7561 11.1306 93.9052 11.1306 94.4936V100.17H5.45459ZM9.27723 103.876H12.984C13.6281 108.709 8.63317 108.709 9.27723 103.876ZM27.8112 103.876H31.518C32.1621 108.709 27.1672 108.709 27.8112 103.876ZM37.0782 100.17H14.8374V93.1036C14.8374 91.9452 11.9276 89.0493 10.7831 89.0493H3.71703V70.5153H10.7831C11.9415 70.5153 14.8374 67.6054 14.8374 66.461V59.3949H25.9578V66.461C25.9578 67.6193 28.8677 70.5153 30.0121 70.5153H37.0782V100.17ZM37.0782 66.8085H31.4022C30.8137 66.8085 29.6646 65.6594 29.6646 65.0709V59.3949H35.3406C35.9291 59.3949 37.0782 60.544 37.0782 61.1325V66.8085ZM89.2004 14.9087C78.1634 17.4386 66.4129 17.42 55.3759 14.9087C61.8304 0.327073 82.746 0.327073 89.2004 14.9087ZM54.2221 18.6155C56.474 19.1576 58.7861 19.6719 61.089 19.9731C68.3868 20.9369 78.0337 20.8349 85.3129 19.709C87.0041 19.4495 88.7093 19.0603 90.3588 18.6155C90.5766 20.2835 90.8731 21.9979 90.7897 23.6799C85.3407 25.6538 79.5164 25.7094 73.7848 25.7881C68.9057 25.8576 63.9247 25.8576 59.0364 25.0375C58.3089 24.917 53.8561 24.0135 53.7449 23.5641L54.2221 18.6201V18.6155ZM49.1207 104.108L41.063 102.324L40.7665 101.916C40.9703 91.9545 38.7324 79.8842 49.1207 74.2221C48.5044 78.6563 46.9893 83.2991 46.7947 87.7658C46.5537 93.2843 48.3839 98.7008 49.1207 104.108ZM95.4603 74.2221C105.909 79.9213 103.625 92.2047 103.768 102.222L95.4603 104.108C95.9468 99.5302 97.5871 94.9385 97.7863 90.3374C98.0226 84.9208 96.2711 79.5228 95.4603 74.2267V74.2221ZM91.0029 72.4196C91.5311 72.9479 93.7412 85.5417 93.8432 87.0708C94.2556 93.1638 92.0176 99.0437 91.267 105.016C87.2497 105.424 82.834 107.24 78.8863 107.579C75.4528 107.875 69.6007 107.838 66.1395 107.593C62.0203 107.301 57.4888 105.447 53.3233 105.002C52.7811 100.587 51.1316 95.842 50.7748 91.4494C50.2605 85.1479 52.4753 78.6795 53.504 72.517C53.8283 71.998 56.9327 71.8127 57.6741 71.6876C59.0595 77.5582 63.3872 82.7802 68.0068 86.4916C68.9057 87.2144 71.1252 89.0307 72.1677 89.0724C73.4095 89.1188 75.5409 87.3163 76.5695 86.4916C81.1798 82.7848 85.5075 77.5397 86.9022 71.6876C87.0737 71.5671 90.7665 72.1833 91.0029 72.4196ZM82.9452 70.9786C82.3845 74.1711 80.3041 77.1644 78.2005 79.5506C77.5101 80.3383 73.0573 84.5919 72.3947 84.6567C71.9221 84.7031 69.5868 82.6967 69.0447 82.2149C65.8198 79.3653 62.4512 75.3017 61.6357 70.9786C62.5439 71.0852 66.7326 70.5894 66.7326 69.4727V62.4067C70.3606 63.3658 74.225 63.426 77.853 62.4067V69.4727C77.853 70.5894 82.0417 71.0852 82.9498 70.9786H82.9452ZM81.5552 67.0402L81.5922 60.5903C83.8719 59.6219 85.4797 57.6805 87.1153 55.9198V67.7352L81.5552 67.0402ZM57.4656 67.7352V55.9198C59.1012 57.6805 60.7091 59.6219 62.9887 60.5903L63.0258 67.0402L57.4656 67.7352ZM90.7248 41.1065C90.3125 42.8533 89.117 42.3436 88.0559 42.8394C86.7076 43.4696 87.0644 45.8975 86.8281 47.1717C83.8256 63.199 60.76 63.2129 57.7529 47.1717C57.5119 45.8975 57.8733 43.4696 56.525 42.8394C55.4639 42.3436 54.2685 42.8487 53.8561 41.1065C53.5735 39.9018 53.4993 36.5286 54.5604 35.7548C54.7133 35.6436 56.9605 34.8698 57.1042 34.8605C57.4146 34.842 57.8455 35.0829 58.2672 35.0783C60.1113 35.0505 84.4743 35.0505 86.3184 35.0783C86.7354 35.0829 87.1663 34.842 87.4814 34.8605C87.6204 34.8698 89.8676 35.6436 90.0252 35.7548C91.0863 36.5286 91.0121 39.9018 90.7295 41.1065H90.7248ZM106.052 28.1698C104.023 29.2911 96.9662 30.1066 94.3899 30.4031C81.1289 31.9322 65.7688 31.9785 52.4846 30.6626C50.8351 30.5004 38.4775 28.8879 38.232 27.9983C38.0976 27.5072 38.4822 27.6925 38.7416 27.5952C42.2307 26.2608 46.285 26.0105 49.9501 25.3572C51.4421 26.6268 52.5495 27.4052 54.4492 28.003C61.9416 30.3707 86.4945 30.9869 92.986 26.687C93.4215 26.3998 94.149 25.4453 94.4409 25.3897C95.0433 25.2785 98.7454 25.941 99.6768 26.0986C101.933 26.4832 104.143 27.067 106.349 27.6554C106.446 28.1837 106.321 28.0261 106.052 28.1698Z" fill="#FE8300"/>
<path d="M14.8377 74.2222H11.1309V85.3426H14.8377V74.2222Z" fill="#FE8300"/>
<path d="M22.2507 74.2222H18.5439V85.3426H22.2507V74.2222Z" fill="#FE8300"/>
<path d="M29.6648 74.2222H25.958V85.3426H29.6648V74.2222Z" fill="#FE8300"/>
</svg>
