<svg width="62" height="61" viewBox="0 0 62 61" fill="none" xmlns="http://www.w3.org/2000/svg">
<g clip-path="url(#clip0_574_401)">
<path d="M30.6143 -0.000126714C38.8975 -0.000126714 47.176 -0.00945464 55.4592 -0.000126714C59.5822 0.00453725 60.9674 1.3291 61.0047 5.63394C61.0793 13.4507 61.0326 21.2722 61.0326 29.0937C61.0326 37.6101 61.0466 46.1265 61.028 54.6429C61.014 59.6054 59.6148 60.9906 54.6523 60.9952C38.5523 61.0045 22.457 61.0045 6.35698 60.9952C1.24527 60.9952 0.0746159 59.8012 0.0746159 54.7082C0.0746159 52.2316 0.0746159 49.7551 0.1026 47.2785C0.111928 46.5836 0.167895 45.744 1.12401 45.7627C2.05214 45.7814 2.13142 46.6022 2.13609 47.3065C2.16407 50.0909 2.22004 52.8799 2.15008 55.669C2.09878 57.7071 2.90564 58.6492 5.00909 58.6446C21.9579 58.6166 38.9115 58.6166 55.8603 58.6399C57.7959 58.6399 58.6867 57.8657 58.6867 55.8788C58.6587 38.846 58.6633 21.8132 58.6773 4.7851C58.6773 2.95216 57.8845 2.09399 56.0235 2.09399C38.9954 2.11265 21.9673 2.11265 4.93913 2.09866C2.78438 2.09866 2.15941 3.2833 2.16407 5.21885C2.19206 13.7353 2.19672 22.2517 2.14075 30.7681C2.13142 31.8734 2.7424 33.7763 1.03539 33.7763C-0.471068 33.7763 0.111928 31.934 0.1026 30.894C0.0512961 22.5315 0.069952 14.1737 0.0792799 5.81117C0.0839439 1.0446 1.15199 0.00453725 6.00252 -0.000126714C14.2064 -0.000126714 22.4103 -0.000126714 30.6143 -0.000126714Z" fill="#FE8300"/>
<path d="M55.072 30.493C55.072 37.6102 55.086 44.7274 55.0673 51.8493C55.058 54.741 54.7735 55.0208 51.8492 55.0208C37.6148 55.0301 23.385 55.0301 9.15061 55.0208C6.14235 55.0208 5.80188 54.7037 5.79722 51.7047C5.77856 37.4703 5.78322 23.2312 5.79722 8.9968C5.79722 6.22174 6.23563 5.75068 9.05733 5.74602C23.3664 5.71337 37.6754 5.71804 51.9845 5.73669C54.6243 5.73669 55.0487 6.20775 55.058 8.90352C55.0813 16.1 55.0673 23.2965 55.0673 30.4884L55.072 30.493ZM30.4603 52.6702C37.195 52.6702 43.9298 52.6329 50.6646 52.6982C52.1477 52.7121 52.7354 52.3157 52.7307 50.7579C52.6887 37.2838 52.6887 23.8096 52.7307 10.34C52.7354 8.60969 52.0358 8.05468 50.3707 8.05935C37.0551 8.09666 23.7395 8.10132 10.4285 8.05935C8.69354 8.05468 8.14785 8.74028 8.15252 10.4053C8.18983 23.8002 8.19449 37.1951 8.14785 50.5947C8.14319 52.2038 8.61425 52.7261 10.2653 52.7028C17.0001 52.6142 23.7348 52.6655 30.4696 52.6702H30.4603Z" fill="#FE8300"/>
<rect x="13" y="15" width="8" height="8" fill="#FE8300"/>
<rect x="28" y="16" width="6" height="6" rx="1" stroke="#FE8300" stroke-width="2"/>
<rect x="42" y="16" width="6" height="6" rx="1" stroke="#FE8300" stroke-width="2"/>
<rect x="14" y="28" width="6" height="6" rx="1" stroke="#FE8300" stroke-width="2"/>
<rect x="28" y="28" width="6" height="6" rx="1" stroke="#FE8300" stroke-width="2"/>
<rect x="42" y="28" width="6" height="6" rx="1" stroke="#FE8300" stroke-width="2"/>
<rect x="14" y="41" width="6" height="6" rx="1" stroke="#FE8300" stroke-width="2"/>
<rect x="27" y="40" width="8" height="8" fill="#FE8300"/>
<rect x="42" y="41" width="6" height="6" rx="1" stroke="#FE8300" stroke-width="2"/>
</g>
<defs>
<clipPath id="clip0_574_401">
<rect width="61.0466" height="61" fill="white"/>
</clipPath>
</defs>
</svg>
